<?xml version="1.0" encoding="UTF-8"?>
<svg version="1.1" xmlns="http://www.w3.org/2000/svg" width="445" height="544">
<path d="M0 0 C2.25 0.8125 2.25 0.8125 3.25 1.8125 C3.63478954 6.81476402 3.05912116 10.87799462 1.796875 15.73046875 C-0.15063545 23.93190771 -0.51718511 32.04673671 -0.921875 40.43945312 C-1.57998973 51.88685268 -2.83550605 65.39866413 -11.74609375 73.6640625 C-17.05283421 77.77313493 -20.89434595 79.2772901 -27.75 78.8125 C-31.95142002 77.16488431 -34.74528597 75.1639118 -37.75 71.8125 C-38.01248535 72.53671143 -38.2749707 73.26092285 -38.54541016 74.00708008 C-39.77761512 76.876814 -41.21913796 79.15471292 -43.0234375 81.69921875 C-43.67763672 82.62887451 -44.33183594 83.55853027 -45.00585938 84.51635742 C-45.70517578 85.50095947 -46.40449219 86.48556152 -47.125 87.5 C-48.58211739 89.57194107 -50.03783223 91.64486918 -51.4921875 93.71875 C-52.21374023 94.74742188 -52.93529297 95.77609375 -53.67871094 96.8359375 C-56.59099864 101.02106382 -59.43238088 105.25074072 -62.25 109.5 C-62.73251221 110.22743408 -63.21502441 110.95486816 -63.7121582 111.7043457 C-65.05971378 113.73933909 -66.40498755 115.77582525 -67.75 117.8125 C-69.26857831 120.10567934 -70.79003492 122.39689464 -72.3125 124.6875 C-72.91191406 125.59242188 -73.51132812 126.49734375 -74.12890625 127.4296875 C-75.75 129.8125 -75.75 129.8125 -77.34765625 131.6328125 C-79.376969 134.78700892 -79.8984188 138.18958548 -80.625 141.8125 C-84.42524736 159.15736079 -92.45563353 175.99922382 -107.5 186.3125 C-109.77753721 187.76337556 -111.75048718 188.81266388 -114.31640625 189.67578125 C-117.40789152 191.11979765 -118.2323805 192.56754513 -119.9375 195.5 C-122.78857517 200.24763283 -125.768121 204.8562772 -128.875 209.4375 C-132.45279304 214.75215747 -135.81356786 220.10963969 -138.75 225.8125 C-138.04359375 226.05871094 -137.3371875 226.30492187 -136.609375 226.55859375 C-118.70787304 234.40884256 -105.04536099 253.25273575 -97.75 270.8125 C-92.70040021 284.48849943 -90.37066959 297.46578286 -90.4375 312.0625 C-90.44313965 313.34648682 -90.4487793 314.63047363 -90.45458984 315.95336914 C-90.71099151 335.95650701 -95.34816207 353.29002163 -109.7578125 367.83984375 C-117.78932719 375.28867992 -125.75268715 378.30843949 -136.68359375 378.21875 C-144.09221634 377.71707785 -150.92975906 374.54322911 -157.75 371.8125 C-182.26609769 362.08597723 -198.29303423 362.2325633 -222.99194336 371.78955078 C-224.88081325 372.49012304 -226.79010836 373.13729284 -228.71313477 373.73779297 C-234.9721842 375.74022822 -238.36292747 377.41110101 -241.5625 383.1875 C-242.37623361 384.52087512 -243.19004045 385.85420556 -244.00390625 387.1875 C-244.43461426 387.91839844 -244.86532227 388.64929688 -245.30908203 389.40234375 C-247.50844662 393.08111827 -249.8313697 396.6788767 -252.14331055 400.28759766 C-254.48636656 403.94713997 -256.81054155 407.6181453 -259.11010742 411.30517578 C-260.75 413.8125 -260.75 413.8125 -262.4465332 415.97216797 C-267.54252107 422.59733623 -267.91958523 429.01000673 -268.4375 437.1875 C-268.594511 439.19152244 -268.76157485 441.19452862 -268.92987061 443.19763184 C-269.09570581 445.17209025 -269.25516652 447.14708069 -269.41455078 449.12207031 C-269.87047149 454.13786174 -270.56161972 459.09353966 -271.375 464.0625 C-271.49834717 464.83513184 -271.62169434 465.60776367 -271.7487793 466.40380859 C-272.60329861 471.51909722 -272.60329861 471.51909722 -273.75 473.8125 C-275.07 473.8125 -276.39 473.8125 -277.75 473.8125 C-277.75 467.5425 -277.75 461.2725 -277.75 454.8125 C-278.018125 456.565625 -278.28625 458.31875 -278.5625 460.125 C-278.74554688 461.29289062 -278.92859375 462.46078125 -279.1171875 463.6640625 C-279.59122124 466.71744173 -280.02393636 469.7748662 -280.4453125 472.8359375 C-280.69256828 474.55731179 -280.9399634 476.27866607 -281.1875 478 C-281.35245972 479.25647339 -281.35245972 479.25647339 -281.52075195 480.53833008 C-281.83116419 482.64675385 -282.28084672 484.73362969 -282.75 486.8125 C-283.74 487.4725 -284.73 488.1325 -285.75 488.8125 C-286.41 488.4825 -287.07 488.1525 -287.75 487.8125 C-287.75 482.8625 -287.75 477.9125 -287.75 472.8125 C-288.018125 474.441875 -288.28625 476.07125 -288.5625 477.75 C-289.8994339 485.78122165 -291.32535127 493.7964765 -292.75 501.8125 C-294.07 501.8125 -295.39 501.8125 -296.75 501.8125 C-296.93451025 488.1792426 -296.93451025 488.1792426 -295.75 481.8125 C-296.41 481.8125 -297.07 481.8125 -297.75 481.8125 C-297.71132813 482.89015625 -297.67265625 483.9678125 -297.6328125 485.078125 C-297.635279 490.67708755 -298.63777261 496.06623406 -299.625 501.5625 C-299.79902344 502.58988281 -299.97304688 503.61726563 -300.15234375 504.67578125 C-301.61131038 512.96487315 -301.61131038 512.96487315 -303.75 516.8125 C-305.07 516.1525 -306.39 515.4925 -307.75 514.8125 C-307.51796875 513.21728516 -307.51796875 513.21728516 -307.28125 511.58984375 C-306.56632072 505.86915082 -306.43474075 500.1327535 -306.25 494.375 C-306.01685452 487.1345375 -305.65723798 480.00236101 -304.75 472.8125 C-307.93832842 471.74399817 -309.47122998 471.79827497 -312.47265625 473.2890625 C-313.17092529 473.62784424 -313.86919434 473.96662598 -314.58862305 474.31567383 C-315.32250244 474.68587646 -316.05638184 475.0560791 -316.8125 475.4375 C-318.34085928 476.18418058 -319.86950541 476.93027429 -321.3984375 477.67578125 C-322.1419043 478.04268066 -322.88537109 478.40958008 -323.65136719 478.78759766 C-327.23496497 480.53770742 -330.87812613 482.15220833 -334.51953125 483.77734375 C-336.42918681 484.66361122 -338.28464369 485.66507983 -340.125 486.6875 C-343.170348 487.99264914 -344.64062277 487.81847499 -347.75 486.8125 C-346.41706145 483.64651133 -345.30725395 482.20861902 -342.28515625 480.5859375 C-341.57625244 480.19857422 -340.86734863 479.81121094 -340.13696289 479.41210938 C-339.36989014 479.00798828 -338.60281738 478.60386719 -337.8125 478.1875 C-337.02286865 477.76017578 -336.2332373 477.33285156 -335.41967773 476.89257812 C-332.87034682 475.51849202 -330.31184457 474.16309988 -327.75 472.8125 C-326.43322266 472.11688965 -326.43322266 472.11688965 -325.08984375 471.40722656 C-321.68290448 469.60967723 -318.27565404 467.81309105 -314.85766602 466.03662109 C-314.10155029 465.64297363 -313.34543457 465.24932617 -312.56640625 464.84375 C-311.90068604 464.49892578 -311.23496582 464.15410156 -310.54907227 463.79882812 C-308.89694988 462.89306419 -307.31768448 461.85762299 -305.75 460.8125 C-307.04417847 461.41106812 -307.04417847 461.41106812 -308.36450195 462.02172852 C-311.5646299 463.49620638 -314.768504 464.96183853 -317.9753418 466.42163086 C-319.36301777 467.05549151 -320.74910316 467.69284635 -322.13354492 468.33374023 C-324.12271815 469.25384867 -326.11725497 470.16127924 -328.11328125 471.06640625 C-329.91212769 471.89120483 -329.91212769 471.89120483 -331.74731445 472.73266602 C-334.75 473.8125 -334.75 473.8125 -337.75 472.8125 C-337.75 471.8225 -337.75 470.8325 -337.75 469.8125 C-323.30864387 461.32992328 -308.87982601 453.02555659 -293.75 445.8125 C-294.74012085 446.24332886 -294.74012085 446.24332886 -295.75024414 446.68286133 C-298.77091061 447.99710413 -301.79170426 449.31105436 -304.8125 450.625 C-305.85083984 451.07681641 -306.88917969 451.52863281 -307.95898438 451.99414062 C-309.98096562 452.87354199 -312.00380999 453.75096194 -314.02758789 454.6262207 C-315.67540703 455.34425076 -317.31916644 456.07184225 -318.95483398 456.81713867 C-322.68257849 458.50096807 -324.77611833 459.13712722 -328.75 457.8125 C-324.99605134 453.41131881 -320.84705113 451.09827298 -315.74609375 448.43359375 C-311.68322069 446.23529868 -307.83625967 443.74661138 -303.96484375 441.23046875 C-301.75 439.8125 -301.75 439.8125 -299.75 438.8125 C-305.36 441.1225 -310.97 443.4325 -316.75 445.8125 C-317.74 444.3275 -317.74 444.3275 -318.75 442.8125 C-313.55682393 438.50749169 -307.94455886 435.25490291 -302.125 431.875 C-301.09503906 431.26720703 -300.06507813 430.65941406 -299.00390625 430.03320312 C-291.54408744 425.68398801 -283.96649753 421.55133251 -275.75 418.8125 C-274.48616225 417.26223769 -274.48616225 417.26223769 -273.40234375 415.3046875 C-272.74890991 414.20616455 -272.74890991 414.20616455 -272.08227539 413.08544922 C-271.62199951 412.29412598 -271.16172363 411.50280273 -270.6875 410.6875 C-266.68755291 403.95717467 -262.55937766 397.37256999 -258.09936523 390.93701172 C-255.22613118 386.7316584 -252.95590437 382.40520295 -250.75 377.8125 C-252.668125 377.503125 -252.668125 377.503125 -254.625 377.1875 C-263.32606703 375.22804711 -270.90254352 370.32803879 -275.75 362.8125 C-280.9456622 353.84855532 -284.42662675 344.9349352 -286.75 334.8125 C-286.97558594 333.87019531 -287.20117188 332.92789062 -287.43359375 331.95703125 C-288.94265979 324.24518341 -288.95381488 316.52357511 -289 308.6875 C-289.0093457 307.59083008 -289.01869141 306.49416016 -289.02832031 305.36425781 C-288.93678015 281.95110054 -280.49317669 260.09091555 -264.75 242.8125 C-264.12609375 242.10738281 -263.5021875 241.40226563 -262.859375 240.67578125 C-246.3904768 223.06513171 -221.90789465 213.43195241 -198.15234375 212.37109375 C-180.72437103 211.86923383 -165.06001306 213.50885154 -148.75 219.8125 C-143.33823217 211.19217417 -137.9312533 202.57429419 -132.75 193.8125 C-133.46542969 193.85890625 -134.18085938 193.9053125 -134.91796875 193.953125 C-148.55120907 194.44695518 -159.42741028 190.40569421 -169.48828125 181.2265625 C-180.35034182 169.71895311 -183.71696402 153.12467464 -183.75 137.8125 C-183.00400262 122.90876973 -178.65000411 106.95450097 -169.75 94.8125 C-169.08097656 93.88953125 -168.41195312 92.9665625 -167.72265625 92.015625 C-159.29659288 81.05730006 -148.37270118 73.507196 -134.6171875 71.12890625 C-120.33919271 69.55326922 -108.40163046 71.10242871 -96.75 79.8125 C-86.9655484 88.58716834 -81.30288694 100.87177552 -79.75 113.8125 C-71.55179462 103.65463588 -64.36911804 92.84894524 -57.17773438 81.97021484 C-55.12668 78.87048527 -53.06343843 75.77899907 -51 72.6875 C-49.91666667 71.0625 -48.83333333 69.4375 -47.75 67.8125 C-48.53890625 67.18472656 -49.3278125 66.55695313 -50.140625 65.91015625 C-55.48210634 61.61618098 -55.48210634 61.61618098 -56.75 57.8125 C-57.7163717 48.14878298 -55.73095491 41.20807331 -49.625 33.6875 C-42.51216433 26.09749297 -33.20301857 21.25822067 -24.375 15.94580078 C-17.44100662 11.72567918 -11.29816632 6.8736631 -5.16015625 1.578125 C-2.75 -0.1875 -2.75 -0.1875 0 0 Z M-286.75 450.8125 C-286.75 454.4425 -286.75 458.0725 -286.75 461.8125 C-286.42 461.8125 -286.09 461.8125 -285.75 461.8125 C-285.75 458.1825 -285.75 454.5525 -285.75 450.8125 C-286.08 450.8125 -286.41 450.8125 -286.75 450.8125 Z M-296.75 464.8125 C-296.75 469.4325 -296.75 474.0525 -296.75 478.8125 C-296.42 478.8125 -296.09 478.8125 -295.75 478.8125 C-295.42 474.1925 -295.09 469.5725 -294.75 464.8125 C-295.41 464.8125 -296.07 464.8125 -296.75 464.8125 Z M-287.75 464.8125 C-287.75 466.4625 -287.75 468.1125 -287.75 469.8125 C-287.42 469.8125 -287.09 469.8125 -286.75 469.8125 C-286.75 468.1625 -286.75 466.5125 -286.75 464.8125 C-287.08 464.8125 -287.41 464.8125 -287.75 464.8125 Z " fill="#C0C2AA" transform="translate(407.75,17.1875)"/>
<path d="M0 0 C2.25 0.8125 2.25 0.8125 3.25 1.8125 C3.63478954 6.81476402 3.05912116 10.87799462 1.796875 15.73046875 C-0.15063545 23.93190771 -0.51718511 32.04673671 -0.921875 40.43945312 C-1.57998973 51.88685268 -2.83550605 65.39866413 -11.74609375 73.6640625 C-17.05283421 77.77313493 -20.89434595 79.2772901 -27.75 78.8125 C-31.95142002 77.16488431 -34.74528597 75.1639118 -37.75 71.8125 C-38.14372803 72.89881714 -38.14372803 72.89881714 -38.54541016 74.00708008 C-39.77761512 76.876814 -41.21913796 79.15471292 -43.0234375 81.69921875 C-43.67763672 82.62887451 -44.33183594 83.55853027 -45.00585938 84.51635742 C-46.05483398 85.9932605 -46.05483398 85.9932605 -47.125 87.5 C-48.58211739 89.57194107 -50.03783223 91.64486918 -51.4921875 93.71875 C-52.21374023 94.74742188 -52.93529297 95.77609375 -53.67871094 96.8359375 C-56.59099864 101.02106382 -59.43238088 105.25074072 -62.25 109.5 C-62.73251221 110.22743408 -63.21502441 110.95486816 -63.7121582 111.7043457 C-65.05971378 113.73933909 -66.40498755 115.77582525 -67.75 117.8125 C-69.26857831 120.10567934 -70.79003492 122.39689464 -72.3125 124.6875 C-73.21162109 126.04488281 -73.21162109 126.04488281 -74.12890625 127.4296875 C-75.75 129.8125 -75.75 129.8125 -77.34765625 131.6328125 C-79.376969 134.78700892 -79.8984188 138.18958548 -80.625 141.8125 C-84.42524736 159.15736079 -92.45563353 175.99922382 -107.5 186.3125 C-109.77753721 187.76337556 -111.75048718 188.81266388 -114.31640625 189.67578125 C-117.40789152 191.11979765 -118.2323805 192.56754513 -119.9375 195.5 C-122.78857517 200.24763283 -125.768121 204.8562772 -128.875 209.4375 C-132.45279304 214.75215747 -135.81356786 220.10963969 -138.75 225.8125 C-138.09 226.1425 -137.43 226.4725 -136.75 226.8125 C-140.75 226.8125 -140.75 226.8125 -142.1875 225.5 C-142.703125 224.943125 -143.21875 224.38625 -143.75 223.8125 C-145.39605826 222.77892853 -147.05963442 221.77189668 -148.75 220.8125 C-145.15438968 214.10069406 -141.20399643 207.65786607 -137.14111328 201.22265625 C-134.82153283 197.58894294 -134.82153283 197.58894294 -132.75 193.8125 C-133.46542969 193.85890625 -134.18085938 193.9053125 -134.91796875 193.953125 C-148.55120907 194.44695518 -159.42741028 190.40569421 -169.48828125 181.2265625 C-180.35034182 169.71895311 -183.71696402 153.12467464 -183.75 137.8125 C-183.00400262 122.90876973 -178.65000411 106.95450097 -169.75 94.8125 C-169.08097656 93.88953125 -168.41195312 92.9665625 -167.72265625 92.015625 C-159.29659288 81.05730006 -148.37270118 73.507196 -134.6171875 71.12890625 C-120.33919271 69.55326922 -108.40163046 71.10242871 -96.75 79.8125 C-86.9655484 88.58716834 -81.30288694 100.87177552 -79.75 113.8125 C-71.55179462 103.65463588 -64.36911804 92.84894524 -57.17773438 81.97021484 C-55.12668 78.87048527 -53.06343843 75.77899907 -51 72.6875 C-49.91666667 71.0625 -48.83333333 69.4375 -47.75 67.8125 C-48.53890625 67.18472656 -49.3278125 66.55695313 -50.140625 65.91015625 C-55.48210634 61.61618098 -55.48210634 61.61618098 -56.75 57.8125 C-57.7163717 48.14878298 -55.73095491 41.20807331 -49.625 33.6875 C-42.51216433 26.09749297 -33.20301857 21.25822067 -24.375 15.94580078 C-17.44100662 11.72567918 -11.29816632 6.8736631 -5.16015625 1.578125 C-2.75 -0.1875 -2.75 -0.1875 0 0 Z " fill="#BFC1A9" transform="translate(407.75,17.1875)"/>
<path d="M0 0 C8.09990825 6.25660309 13.06858082 16.74854367 14.91015625 26.62890625 C16.01157696 38.60508385 15.88584171 50.50765689 10.91015625 61.62890625 C10.43578125 62.68980469 9.96140625 63.75070313 9.47265625 64.84375 C0.43700945 83.11052635 -14.25503463 95.88943569 -33.08984375 103.62890625 C-46.39497474 108.02742602 -60.996208 108.53111616 -73.81640625 102.3046875 C-76.33733515 100.85382056 -78.71578649 99.30811748 -81.08984375 97.62890625 C-82.04503906 96.96761719 -82.04503906 96.96761719 -83.01953125 96.29296875 C-92.59868313 88.92766531 -98.27431248 76.37847655 -100.08984375 64.62890625 C-100.65284499 54.23503719 -100.1894321 44.65225039 -97.08984375 34.62890625 C-96.82300781 33.75878906 -96.55617188 32.88867188 -96.28125 31.9921875 C-90.19397677 14.75844063 -75.6438278 2.61004099 -59.65234375 -5.12109375 C-39.61029301 -13.72271043 -18.29988371 -12.00609193 0 0 Z " fill="#BEC0A9" transform="translate(410.08984375,180.37109375)"/>
<path d="M0 0 C10.71836215 10.18635585 18.36204951 24.14170457 18.9765625 39.12890625 C19.17205523 55.04267162 16.15404561 67.47650897 5.23828125 79.79296875 C-2.2514461 86.78533139 -14.06555898 92.63601455 -24.32421875 93.54296875 C-25.01128906 93.61128906 -25.69835937 93.67960937 -26.40625 93.75 C-44.49640761 94.63006172 -60.97578364 85.72016264 -74.05078125 74.125 C-85.69712212 63.05921691 -93.98108881 48.37917063 -94.52734375 32.03125 C-94.80174947 14.02294049 -94.80174947 14.02294049 -91.32421875 6.54296875 C-90.91042969 5.62257812 -90.49664062 4.7021875 -90.0703125 3.75390625 C-85.10696394 -6.28098375 -77.84193738 -12.60566957 -67.32421875 -16.45703125 C-42.89320775 -23.68081856 -19.1155529 -16.14142161 0 0 Z " fill="#BEC0A9" transform="translate(106.32421875,189.45703125)"/>
<path d="M0 0 C13.30945643 12.48406379 19.33603531 30.37167438 20.125 48.2890625 C20.56695988 66.87604499 16.46683873 84.64462599 3.625 98.6875 C-6.11842826 107.79596327 -17.36771922 110.39311469 -30.30859375 110.1875 C-43.78045342 109.08437945 -55.454245 102.00894491 -64.125 91.875 C-76.23790387 76.70863495 -84.006563 55.44932474 -82.125 35.875 C-80.4182555 21.52283034 -76.17099329 7.6860454 -64.8359375 -2.1015625 C-44.76849223 -16.26287003 -18.88084477 -15.92360403 0 0 Z " fill="#BEC0A9" transform="translate(190.125,101.125)"/>
<path d="M0 0 C1.33998047 0.06960938 1.33998047 0.06960938 2.70703125 0.140625 C4.05861328 0.19476563 4.05861328 0.19476563 5.4375 0.25 C6.12457031 0.29640625 6.81164062 0.3428125 7.51953125 0.390625 C6.21678867 3.89651809 4.68075618 6.92226753 2.6484375 10.05859375 C2.07923584 10.94329346 1.51003418 11.82799316 0.92358398 12.73950195 C0.31587158 13.67624756 -0.29184082 14.61299316 -0.91796875 15.578125 C-2.18743708 17.55389186 -3.45564887 19.53046659 -4.72265625 21.5078125 C-5.35526367 22.49491211 -5.98787109 23.48201172 -6.63964844 24.49902344 C-9.31839665 28.70686082 -11.94170562 32.94705166 -14.54296875 37.203125 C-14.97085693 37.90010498 -15.39874512 38.59708496 -15.83959961 39.31518555 C-18.85674102 44.26643772 -21.6964802 49.30498924 -24.48046875 54.390625 C-22.50046875 54.885625 -22.50046875 54.885625 -20.48046875 55.390625 C-22.00800781 55.82568359 -22.00800781 55.82568359 -23.56640625 56.26953125 C-28.98273467 58.61044065 -31.21550502 63.43012899 -34.10546875 68.328125 C-35.32026549 70.31592926 -36.53644461 72.30288928 -37.75390625 74.2890625 C-38.36717773 75.3006543 -38.98044922 76.31224609 -39.61230469 77.35449219 C-43.07073501 82.9751194 -46.7406388 88.45902992 -50.39306641 93.95483398 C-50.90144043 94.72899658 -51.40981445 95.50315918 -51.93359375 96.30078125 C-52.37864258 96.97246338 -52.82369141 97.64414551 -53.28222656 98.33618164 C-55.77335603 102.60734188 -56.76681514 106.42862579 -57.2265625 111.3359375 C-57.34016113 112.48723145 -57.45375977 113.63852539 -57.57080078 114.82470703 C-57.74264893 116.65171143 -57.74264893 116.65171143 -57.91796875 118.515625 C-58.7906092 127.21613177 -59.72643288 135.87935949 -61.10546875 144.515625 C-61.22849365 145.29566895 -61.35151855 146.07571289 -61.47827148 146.87939453 C-62.34186857 152.11342465 -62.34186857 152.11342465 -63.48046875 154.390625 C-64.80046875 154.390625 -66.12046875 154.390625 -67.48046875 154.390625 C-67.48046875 148.120625 -67.48046875 141.850625 -67.48046875 135.390625 C-67.74859375 137.14375 -68.01671875 138.896875 -68.29296875 140.703125 C-68.56753906 142.45496094 -68.56753906 142.45496094 -68.84765625 144.2421875 C-69.32168999 147.29556673 -69.75440511 150.3529912 -70.17578125 153.4140625 C-70.42303703 155.13543679 -70.67043215 156.85679107 -70.91796875 158.578125 C-71.08292847 159.83459839 -71.08292847 159.83459839 -71.2512207 161.11645508 C-71.56163294 163.22487885 -72.01131547 165.31175469 -72.48046875 167.390625 C-73.47046875 168.050625 -74.46046875 168.710625 -75.48046875 169.390625 C-76.14046875 169.060625 -76.80046875 168.730625 -77.48046875 168.390625 C-77.48046875 163.440625 -77.48046875 158.490625 -77.48046875 153.390625 C-77.74859375 155.02 -78.01671875 156.649375 -78.29296875 158.328125 C-79.62990265 166.35934665 -81.05582002 174.3746015 -82.48046875 182.390625 C-83.80046875 182.390625 -85.12046875 182.390625 -86.48046875 182.390625 C-86.664979 168.7573676 -86.664979 168.7573676 -85.48046875 162.390625 C-86.14046875 162.390625 -86.80046875 162.390625 -87.48046875 162.390625 C-87.42246094 164.00710938 -87.42246094 164.00710938 -87.36328125 165.65625 C-87.36574775 171.25521255 -88.36824136 176.64435906 -89.35546875 182.140625 C-89.52949219 183.16800781 -89.70351562 184.19539062 -89.8828125 185.25390625 C-91.34177913 193.54299815 -91.34177913 193.54299815 -93.48046875 197.390625 C-94.80046875 196.730625 -96.12046875 196.070625 -97.48046875 195.390625 C-97.2484375 193.79541016 -97.2484375 193.79541016 -97.01171875 192.16796875 C-96.29678947 186.44727582 -96.1652095 180.7108785 -95.98046875 174.953125 C-95.74732327 167.7126625 -95.38770673 160.58048601 -94.48046875 153.390625 C-97.66879717 152.32212317 -99.20169873 152.37639997 -102.203125 153.8671875 C-102.90139404 154.20596924 -103.59966309 154.54475098 -104.3190918 154.89379883 C-105.41991089 155.44910278 -105.41991089 155.44910278 -106.54296875 156.015625 C-108.07132803 156.76230558 -109.59997416 157.50839929 -111.12890625 158.25390625 C-111.87237305 158.62080566 -112.61583984 158.98770508 -113.38183594 159.36572266 C-116.96543372 161.11583242 -120.60859488 162.73033333 -124.25 164.35546875 C-126.15965556 165.24173622 -128.01511244 166.24320483 -129.85546875 167.265625 C-132.90081675 168.57077414 -134.37109152 168.39659999 -137.48046875 167.390625 C-136.1475302 164.22463633 -135.0377227 162.78674402 -132.015625 161.1640625 C-131.30672119 160.77669922 -130.59781738 160.38933594 -129.86743164 159.99023438 C-129.10035889 159.58611328 -128.33328613 159.18199219 -127.54296875 158.765625 C-126.7533374 158.33830078 -125.96370605 157.91097656 -125.15014648 157.47070312 C-122.60081557 156.09661702 -120.04231332 154.74122488 -117.48046875 153.390625 C-116.16369141 152.69501465 -116.16369141 152.69501465 -114.8203125 151.98535156 C-111.41337323 150.18780223 -108.00612279 148.39121605 -104.58813477 146.61474609 C-103.83201904 146.22109863 -103.07590332 145.82745117 -102.296875 145.421875 C-101.29829468 144.90463867 -101.29829468 144.90463867 -100.27954102 144.37695312 C-98.62741863 143.47118919 -97.04815323 142.43574799 -95.48046875 141.390625 C-96.77464722 141.98919312 -96.77464722 141.98919312 -98.0949707 142.59985352 C-101.29509865 144.07433138 -104.49897275 145.53996353 -107.70581055 146.99975586 C-109.09348652 147.63361651 -110.47957191 148.27097135 -111.86401367 148.91186523 C-113.8531869 149.83197367 -115.84772372 150.73940424 -117.84375 151.64453125 C-119.64259644 152.46932983 -119.64259644 152.46932983 -121.4777832 153.31079102 C-124.48046875 154.390625 -124.48046875 154.390625 -127.48046875 153.390625 C-127.48046875 152.400625 -127.48046875 151.410625 -127.48046875 150.390625 C-113.03911262 141.90804828 -98.61029476 133.60368159 -83.48046875 126.390625 C-84.14054932 126.67784424 -84.80062988 126.96506348 -85.48071289 127.26098633 C-88.50137936 128.57522913 -91.52217301 129.88917936 -94.54296875 131.203125 C-96.10047852 131.88084961 -96.10047852 131.88084961 -97.68945312 132.57226562 C-99.71143437 133.45166699 -101.73427874 134.32908694 -103.75805664 135.2043457 C-105.40587578 135.92237576 -107.04963519 136.64996725 -108.68530273 137.39526367 C-112.41304724 139.07909307 -114.50658708 139.71525222 -118.48046875 138.390625 C-114.72652009 133.98944381 -110.57751988 131.67639798 -105.4765625 129.01171875 C-101.41368944 126.81342368 -97.56672842 124.32473638 -93.6953125 121.80859375 C-91.48046875 120.390625 -91.48046875 120.390625 -89.48046875 119.390625 C-95.09046875 121.700625 -100.70046875 124.010625 -106.48046875 126.390625 C-107.14046875 125.400625 -107.80046875 124.410625 -108.48046875 123.390625 C-103.28729268 119.08561669 -97.67502761 115.83302791 -91.85546875 112.453125 C-90.82550781 111.84533203 -89.79554687 111.23753906 -88.734375 110.61132812 C-81.27455619 106.26211301 -73.69696628 102.12945751 -65.48046875 99.390625 C-64.216631 97.84036269 -64.216631 97.84036269 -63.1328125 95.8828125 C-62.69718994 95.15046387 -62.26156738 94.41811523 -61.81274414 93.66357422 C-61.35246826 92.87225098 -60.89219238 92.08092773 -60.41796875 91.265625 C-56.41802166 84.53529967 -52.28984641 77.95069499 -47.82983398 71.51513672 C-45.30341368 67.81739061 -43.29833921 64.09729909 -41.48803711 59.99658203 C-40.48046875 58.390625 -40.48046875 58.390625 -37.48046875 57.390625 C-36.75022688 55.75081738 -36.09110891 54.07862406 -35.48046875 52.390625 C-34.62092675 50.90518833 -33.72005641 49.44310611 -32.78515625 48.00390625 C-32.24157471 47.16005371 -31.69799316 46.31620117 -31.13793945 45.44677734 C-30.54972412 44.54137207 -29.96150879 43.6359668 -29.35546875 42.703125 C-23.0062945 32.84155231 -16.8292347 22.88588231 -10.72412109 12.87231445 C-9.7623999 11.29969849 -9.7623999 11.29969849 -8.78125 9.6953125 C-7.93300659 8.3028833 -7.93300659 8.3028833 -7.06762695 6.88232422 C-2.98296159 0.46975773 -2.98296159 0.46975773 0 0 Z M-76.48046875 131.390625 C-76.48046875 135.020625 -76.48046875 138.650625 -76.48046875 142.390625 C-76.15046875 142.390625 -75.82046875 142.390625 -75.48046875 142.390625 C-75.48046875 138.760625 -75.48046875 135.130625 -75.48046875 131.390625 C-75.81046875 131.390625 -76.14046875 131.390625 -76.48046875 131.390625 Z M-86.48046875 145.390625 C-86.48046875 150.010625 -86.48046875 154.630625 -86.48046875 159.390625 C-86.15046875 159.390625 -85.82046875 159.390625 -85.48046875 159.390625 C-85.15046875 154.770625 -84.82046875 150.150625 -84.48046875 145.390625 C-85.14046875 145.390625 -85.80046875 145.390625 -86.48046875 145.390625 Z M-77.48046875 145.390625 C-77.48046875 147.040625 -77.48046875 148.690625 -77.48046875 150.390625 C-77.15046875 150.390625 -76.82046875 150.390625 -76.48046875 150.390625 C-76.48046875 148.740625 -76.48046875 147.090625 -76.48046875 145.390625 C-76.81046875 145.390625 -77.14046875 145.390625 -77.48046875 145.390625 Z " fill="#433325" transform="translate(197.48046875,336.609375)"/>
<path d="M0 0 C2.25 0.8125 2.25 0.8125 3.25 1.8125 C3.63478954 6.81476402 3.05912116 10.87799462 1.796875 15.73046875 C-0.15063545 23.93190771 -0.51718511 32.04673671 -0.921875 40.43945312 C-1.57998973 51.88685268 -2.83550605 65.39866413 -11.74609375 73.6640625 C-17.05283421 77.77313493 -20.89434595 79.2772901 -27.75 78.8125 C-31.95142002 77.16488431 -34.74528597 75.1639118 -37.75 71.8125 C-38.01248535 72.53671143 -38.2749707 73.26092285 -38.54541016 74.00708008 C-39.77761512 76.876814 -41.21913796 79.15471292 -43.0234375 81.69921875 C-44.00473633 83.09370239 -44.00473633 83.09370239 -45.00585938 84.51635742 C-45.70517578 85.50095947 -46.40449219 86.48556152 -47.125 87.5 C-48.58211739 89.57194107 -50.03783223 91.64486918 -51.4921875 93.71875 C-52.21374023 94.74742188 -52.93529297 95.77609375 -53.67871094 96.8359375 C-56.59099864 101.02106382 -59.43238088 105.25074072 -62.25 109.5 C-62.73251221 110.22743408 -63.21502441 110.95486816 -63.7121582 111.7043457 C-65.05971378 113.73933909 -66.40498755 115.77582525 -67.75 117.8125 C-69.26857831 120.10567934 -70.79003492 122.39689464 -72.3125 124.6875 C-73.21162109 126.04488281 -73.21162109 126.04488281 -74.12890625 127.4296875 C-75.15827862 128.94274087 -76.22525822 130.43138662 -77.33984375 131.8828125 C-79.01163022 134.05800945 -79.01163022 134.05800945 -80.75 137.8125 C-80.75 129.8925 -80.75 121.9725 -80.75 113.8125 C-80.09 113.8125 -79.43 113.8125 -78.75 113.8125 C-77.0835625 111.56812616 -75.54249819 109.32250983 -74.0234375 106.98046875 C-73.5569278 106.27408768 -73.09041809 105.5677066 -72.60977173 104.83992004 C-71.10827763 102.56419313 -69.61619976 100.28248297 -68.125 98 C-66.17807321 95.03278094 -64.22687677 92.06840376 -62.2734375 89.10546875 C-61.80089539 88.3868869 -61.32835327 87.66830505 -60.8414917 86.927948 C-57.44933119 81.79564555 -53.90847173 76.81591574 -50.19775391 71.9074707 C-48.58458006 69.78155816 -48.58458006 69.78155816 -47.75 66.8125 C-48.513125 66.379375 -49.27625 65.94625 -50.0625 65.5 C-53.69021468 63.22213264 -55.38566401 61.90550798 -56.75 57.8125 C-57.7163717 48.14878298 -55.73095491 41.20807331 -49.625 33.6875 C-42.51216433 26.09749297 -33.20301857 21.25822067 -24.375 15.94580078 C-17.44100662 11.72567918 -11.29816632 6.8736631 -5.16015625 1.578125 C-2.75 -0.1875 -2.75 -0.1875 0 0 Z " fill="#6F292E" transform="translate(407.75,17.1875)"/>
<path d="M0 0 C0.66 0.33 1.32 0.66 2 1 C1.64159213 6.47791668 1.26867508 11.95459547 0.88305664 17.43066406 C0.75419406 19.28847309 0.62910202 21.14654808 0.50805664 23.00488281 C-1.55629821 54.57337092 -1.55629821 54.57337092 -10.703125 63.69921875 C-13.24193707 65.71371094 -15.15189763 67.02565915 -18.453125 66.92578125 C-21.86348337 65.68612644 -23.06887482 63.94239306 -25.25 61.0625 C-28.29402759 57.15092455 -31.39051873 53.39503718 -34.75 49.75 C-38.16629301 46.00464199 -41.16831575 42.20185404 -44 38 C-34.46123301 29.19055524 -34.46123301 29.19055524 -30.1875 26.25 C-27.06722527 24.04745313 -24.69407374 21.69794454 -22 19 C-19.80824904 17.01767777 -17.56602726 15.09904237 -15.3125 13.1875 C-14.44141602 12.43436523 -14.44141602 12.43436523 -13.55273438 11.66601562 C-9.23830782 8 -9.23830782 8 -7 8 C-7 7.34 -7 6.68 -7 6 C-5.46875 4.4921875 -5.46875 4.4921875 -3.5 2.875 C-2.8503125 2.33617187 -2.200625 1.79734375 -1.53125 1.2421875 C-1.0259375 0.83226563 -0.520625 0.42234375 0 0 Z " fill="#9D424A" transform="translate(407,27)"/>
<path d="M0 0 C0.18508026 18.91931575 -0.92133673 36.48476579 -5 55 C-6.32 55 -7.64 55 -9 55 C-9.18451025 41.3667426 -9.18451025 41.3667426 -8 35 C-8.66 35 -9.32 35 -10 35 C-9.94199219 36.61648438 -9.94199219 36.61648438 -9.8828125 38.265625 C-9.885279 43.86458755 -10.88777261 49.25373406 -11.875 54.75 C-12.04902344 55.77738281 -12.22304687 56.80476562 -12.40234375 57.86328125 C-13.86131038 66.15237315 -13.86131038 66.15237315 -16 70 C-17.32 69.34 -18.64 68.68 -20 68 C-19.76796875 66.40478516 -19.76796875 66.40478516 -19.53125 64.77734375 C-18.81632072 59.05665082 -18.68474075 53.3202535 -18.5 47.5625 C-18.26685452 40.3220375 -17.90723798 33.18986101 -17 26 C-20.18832842 24.93149817 -21.72122998 24.98577497 -24.72265625 26.4765625 C-25.77005981 26.98473511 -25.77005981 26.98473511 -26.83862305 27.50317383 C-27.57250244 27.87337646 -28.30638184 28.2435791 -29.0625 28.625 C-30.59085928 29.37168058 -32.11950541 30.11777429 -33.6484375 30.86328125 C-34.7636377 31.41363037 -34.7636377 31.41363037 -35.90136719 31.97509766 C-39.48496497 33.72520742 -43.12812613 35.33970833 -46.76953125 36.96484375 C-48.67918681 37.85111122 -50.53464369 38.85257983 -52.375 39.875 C-55.420348 41.18014914 -56.89062277 41.00597499 -60 40 C-58.66706145 36.83401133 -57.55725395 35.39611902 -54.53515625 33.7734375 C-53.82625244 33.38607422 -53.11734863 32.99871094 -52.38696289 32.59960938 C-51.61989014 32.19548828 -50.85281738 31.79136719 -50.0625 31.375 C-49.27286865 30.94767578 -48.4832373 30.52035156 -47.66967773 30.08007812 C-45.12034682 28.70599202 -42.56184457 27.35059988 -40 26 C-38.68322266 25.30438965 -38.68322266 25.30438965 -37.33984375 24.59472656 C-33.93290448 22.79717723 -30.52565404 21.00059105 -27.10766602 19.22412109 C-26.35155029 18.83047363 -25.59543457 18.43682617 -24.81640625 18.03125 C-24.15068604 17.68642578 -23.48496582 17.34160156 -22.79907227 16.98632812 C-21.14694988 16.08056419 -19.56768448 15.04512299 -18 14 C-18.86278564 14.39904541 -19.72557129 14.79809082 -20.61450195 15.20922852 C-23.8146299 16.68370638 -27.018504 18.14933853 -30.2253418 19.60913086 C-31.61301777 20.24299151 -32.99910316 20.88034635 -34.38354492 21.52124023 C-36.37271815 22.44134867 -38.36725497 23.34877924 -40.36328125 24.25390625 C-42.16212769 25.07870483 -42.16212769 25.07870483 -43.99731445 25.92016602 C-47 27 -47 27 -50 26 C-50 25.01 -50 24.02 -50 23 C-24.47707757 8.04151066 -24.47707757 8.04151066 -14.625 3.125 C-13.99722656 2.81046875 -13.36945313 2.4959375 -12.72265625 2.171875 C-7.96139223 -0.15017322 -5.12900454 -1.40147625 0 0 Z M-9 18 C-9 22.62 -9 27.24 -9 32 C-8.67 32 -8.34 32 -8 32 C-7.67 27.38 -7.34 22.76 -7 18 C-7.66 18 -8.32 18 -9 18 Z " fill="#5C5A4B" transform="translate(120,464)"/>
<path d="M0 0 C1.33998047 0.06960938 1.33998047 0.06960938 2.70703125 0.140625 C3.60808594 0.17671875 4.50914062 0.2128125 5.4375 0.25 C6.12457031 0.29640625 6.81164062 0.3428125 7.51953125 0.390625 C6.21678867 3.89651809 4.68075618 6.92226753 2.6484375 10.05859375 C1.79463501 11.38564331 1.79463501 11.38564331 0.92358398 12.73950195 C0.01201538 14.14462036 0.01201538 14.14462036 -0.91796875 15.578125 C-2.18743708 17.55389186 -3.45564887 19.53046659 -4.72265625 21.5078125 C-5.67156738 22.98846191 -5.67156738 22.98846191 -6.63964844 24.49902344 C-9.31839665 28.70686082 -11.94170562 32.94705166 -14.54296875 37.203125 C-14.97085693 37.90010498 -15.39874512 38.59708496 -15.83959961 39.31518555 C-18.85674102 44.26643772 -21.6964802 49.30498924 -24.48046875 54.390625 C-23.16046875 54.720625 -21.84046875 55.050625 -20.48046875 55.390625 C-21.49882812 55.68066406 -22.5171875 55.97070312 -23.56640625 56.26953125 C-28.98311427 58.6106047 -31.21469583 63.43029993 -34.10546875 68.328125 C-35.32186129 70.3131471 -36.53933535 72.29750682 -37.7578125 74.28125 C-38.37124512 75.29251953 -38.98467773 76.30378906 -39.61669922 77.34570312 C-42.55281094 82.14255737 -45.60422008 86.86214979 -48.66796875 91.578125 C-49.20824707 92.42044678 -49.74852539 93.26276855 -50.30517578 94.13061523 C-50.81032715 94.91122314 -51.31547852 95.69183105 -51.8359375 96.49609375 C-52.49565552 97.51932739 -52.49565552 97.51932739 -53.16870117 98.56323242 C-54.46751166 100.37257478 -55.86140117 101.86632633 -57.48046875 103.390625 C-58.14046875 102.070625 -58.80046875 100.750625 -59.48046875 99.390625 C-61.13046875 99.390625 -62.78046875 99.390625 -64.48046875 99.390625 C-63.15687411 95.81763407 -61.57009534 92.74474483 -59.50390625 89.546875 C-58.91883301 88.63583008 -58.33375977 87.72478516 -57.73095703 86.78613281 C-57.1120459 85.83061523 -56.49313477 84.87509766 -55.85546875 83.890625 C-54.5892478 81.9170489 -53.32362048 79.94309179 -52.05859375 77.96875 C-51.44564453 77.01419922 -50.83269531 76.05964844 -50.20117188 75.07617188 C-47.98090639 71.61094481 -45.77891703 68.13539021 -43.60546875 64.640625 C-42.98929688 63.65578125 -42.373125 62.6709375 -41.73828125 61.65625 C-40.31867311 59.53108526 -40.31867311 59.53108526 -40.48046875 57.390625 C-39.49046875 57.390625 -38.50046875 57.390625 -37.48046875 57.390625 C-37.20605957 56.65610107 -36.93165039 55.92157715 -36.64892578 55.16479492 C-35.55083457 52.5576887 -34.32288385 50.37110805 -32.78515625 48.00390625 C-31.96978394 46.73812744 -31.96978394 46.73812744 -31.13793945 45.44677734 C-30.54972412 44.54137207 -29.96150879 43.6359668 -29.35546875 42.703125 C-23.0062945 32.84155231 -16.8292347 22.88588231 -10.72412109 12.87231445 C-10.08297363 11.82390381 -9.44182617 10.77549316 -8.78125 9.6953125 C-8.21575439 8.76702637 -7.65025879 7.83874023 -7.06762695 6.88232422 C-2.98296159 0.46975773 -2.98296159 0.46975773 0 0 Z " fill="#714834" transform="translate(197.48046875,336.609375)"/>
<path d="M0 0 C1.03125 0.185625 2.0625 0.37125 3.125 0.5625 C6.76148442 0.97307082 9.45437009 0.778309 13 0 C13 1.65 13 3.3 13 5 C13.66 5 14.32 5 15 5 C15 5.66 15 6.32 15 7 C14.34 7 13.68 7 13 7 C12.73751465 7.72421143 12.4750293 8.44842285 12.20458984 9.19458008 C10.97238488 12.064314 9.53086204 14.34221292 7.7265625 16.88671875 C7.07236328 17.81637451 6.41816406 18.74603027 5.74414062 19.70385742 C4.69516602 21.1807605 4.69516602 21.1807605 3.625 22.6875 C2.16788261 24.75944107 0.71216777 26.83236918 -0.7421875 28.90625 C-1.46374023 29.93492188 -2.18529297 30.96359375 -2.92871094 32.0234375 C-5.84099864 36.20856382 -8.68238088 40.43824072 -11.5 44.6875 C-11.98251221 45.41493408 -12.46502441 46.14236816 -12.9621582 46.8918457 C-14.30971378 48.92683909 -15.65498755 50.96332525 -17 53 C-18.51857831 55.29317934 -20.04003492 57.58439464 -21.5625 59.875 C-22.46162109 61.23238281 -22.46162109 61.23238281 -23.37890625 62.6171875 C-24.40827862 64.13024087 -25.47525822 65.61888662 -26.58984375 67.0703125 C-28.26163022 69.24550945 -28.26163022 69.24550945 -30 73 C-30 65.08 -30 57.16 -30 49 C-29.34 49 -28.68 49 -28 49 C-26.3335625 46.75562616 -24.79249819 44.51000983 -23.2734375 42.16796875 C-22.8069278 41.46158768 -22.34041809 40.7552066 -21.85977173 40.02742004 C-20.35827763 37.75169313 -18.86619976 35.46998297 -17.375 33.1875 C-15.42807321 30.22028094 -13.47687677 27.25590376 -11.5234375 24.29296875 C-10.81462433 23.21509598 -10.81462433 23.21509598 -10.0914917 22.115448 C-6.69933119 16.98314555 -3.15847173 12.00341574 0.55224609 7.0949707 C2.16541994 4.96905816 2.16541994 4.96905816 3 2 C2.01 1.34 1.02 0.68 0 0 Z " fill="#683A2B" transform="translate(357,82)"/>
<path d="M0 0 C2.67434413 6.72962232 1.71939749 12.68478499 0.8125 19.75 C0.6695752 20.93907959 0.52665039 22.12815918 0.37939453 23.35327148 C-3.02456597 51.04913194 -3.02456597 51.04913194 -5 55 C-6.32 55 -7.64 55 -9 55 C-9.24059186 45.23598031 -8.32776073 35.59331832 -7.5 25.875 C-7.35509226 24.1380522 -7.21055787 22.40107321 -7.06640625 20.6640625 C-6.71524289 16.44233626 -6.35902286 12.22106481 -6 8 C-11.59907035 10.43315843 -17.07617333 13.01328727 -22.5 15.8125 C-30.80240807 20.03990972 -39.34270356 23.57136775 -48 27 C-48.66 26.01 -49.32 25.02 -50 24 C-44.80682393 19.69499169 -39.19455886 16.44240291 -33.375 13.0625 C-32.34503906 12.45470703 -31.31507812 11.84691406 -30.25390625 11.22070312 C-6.6325629 -2.55098573 -6.6325629 -2.55098573 0 0 Z " fill="#C1C1AB" transform="translate(139,436)"/>
<path d="M0 0 C0.70125 0.268125 1.4025 0.53625 2.125 0.8125 C2.62 3.2875 2.62 3.2875 3.125 5.8125 C-17.9346745 23.8125 -17.9346745 23.8125 -20.875 23.8125 C-21.10316406 24.38613281 -21.33132813 24.95976563 -21.56640625 25.55078125 C-23.22899597 28.42433183 -25.20601403 29.94697159 -27.8125 32 C-28.78703125 32.77601562 -29.7615625 33.55203125 -30.765625 34.3515625 C-31.79171875 35.16367187 -32.8178125 35.97578125 -33.875 36.8125 C-35.9441933 38.49197407 -38.00297649 40.18362965 -40.0625 41.875 C-41.66666667 43.1875 -43.27083333 44.5 -44.875 45.8125 C-50.02270554 43.31309751 -50.02270554 43.31309751 -51.875 40.8125 C-52.23395171 37.82771165 -52.22977775 36.33488274 -50.52050781 33.81811523 C-45.05077659 28.51132095 -39.21428221 24.66663438 -32.625 20.875 C-22.94046985 15.14678174 -13.77570793 9.29974455 -5.4375 1.6875 C-2.875 -0.1875 -2.875 -0.1875 0 0 Z " fill="#9F424B" transform="translate(407.875,17.1875)"/>
<path d="M0 0 C0.66 0 1.32 0 2 0 C2 0.66 2 1.32 2 2 C2.66 2 3.32 2 4 2 C4.33 1.34 4.66 0.68 5 0 C5.66 0 6.32 0 7 0 C8.25 2.09765625 8.25 2.09765625 9 5 C7.78478324 7.4272689 6.60557076 9.28829688 5 11.4375 C4.06466905 12.75957377 3.13257609 14.08394219 2.203125 15.41015625 C1.69072266 16.13477051 1.17832031 16.85938477 0.65039062 17.60595703 C-2.45263739 22.10718377 -5.33646023 26.74983343 -8.25 31.375 C-12.41739822 37.97434949 -16.63751307 44.52759092 -21 51 C-21.43957031 50.34515625 -21.87914062 49.6903125 -22.33203125 49.015625 C-22.88246094 48.35046875 -23.43289062 47.6853125 -24 47 C-26.62625139 46.66574265 -26.62625139 46.66574265 -29 47 C-27.67640536 43.42700907 -26.08962659 40.35411983 -24.0234375 37.15625 C-23.43836426 36.24520508 -22.85329102 35.33416016 -22.25048828 34.39550781 C-21.63157715 33.43999023 -21.01266602 32.48447266 -20.375 31.5 C-19.10877905 29.5264239 -17.84315173 27.55246679 -16.578125 25.578125 C-15.96517578 24.62357422 -15.35222656 23.66902344 -14.72070312 22.68554688 C-12.50043764 19.22031981 -10.29844828 15.74476521 -8.125 12.25 C-7.50882813 11.26515625 -6.89265625 10.2803125 -6.2578125 9.265625 C-4.83820436 7.14046026 -4.83820436 7.14046026 -5 5 C-4.01 5 -3.02 5 -2 5 C-1.34 3.35 -0.68 1.7 0 0 Z " fill="#613829" transform="translate(162,389)"/>
<path d="M0 0 C0.22379488 11.55030268 -0.08974426 22.5896331 -2 34 C-2.99 34 -3.98 34 -5 34 C-7 32 -7 32 -7.265625 29.171875 C-7.26046875 28.04265625 -7.2553125 26.9134375 -7.25 25.75 C-7.25773437 24.07164062 -7.25773437 24.07164062 -7.265625 22.359375 C-6.88285502 17.51846056 -5.68807324 14.03210986 -3 10 C-3.99 10.66 -4.98 11.32 -6 12 C-6 10.68 -6 9.36 -6 8 C-11.62940404 10.41260173 -17.1036876 13.04244518 -22.5625 15.8125 C-28.25906679 18.68351538 -33.99213227 21.4507025 -39.8125 24.0625 C-40.48804932 24.37356689 -41.16359863 24.68463379 -41.85961914 25.00512695 C-46.6478495 27.1173835 -46.6478495 27.1173835 -50 26 C-50 25.01 -50 24.02 -50 23 C-24.47707757 8.04151066 -24.47707757 8.04151066 -14.625 3.125 C-13.99722656 2.81046875 -13.36945313 2.4959375 -12.72265625 2.171875 C-7.96139223 -0.15017322 -5.12900454 -1.40147625 0 0 Z " fill="#9EA18F" transform="translate(120,464)"/>
<path d="M0 0 C-1.54584105 4.47614413 -3.97032071 8.1835439 -6.625 12.0625 C-7.06577881 12.71573242 -7.50655762 13.36896484 -7.96069336 14.04199219 C-9.30295887 16.03085597 -10.65083273 18.01581338 -12 20 C-13.52523349 22.24710894 -15.04525974 24.49746066 -16.5625 26.75 C-17.20316406 27.69359375 -17.84382813 28.6371875 -18.50390625 29.609375 C-20.13096015 32.00086148 -20.13096015 32.00086148 -21 35 C-20.34 35.33 -19.68 35.66 -19 36 C-23 36 -23 36 -24.4375 34.6875 C-24.953125 34.130625 -25.46875 33.57375 -26 33 C-27.64605826 31.96642853 -29.30963442 30.95939668 -31 30 C-27.40438968 23.28819406 -23.45399643 16.84536607 -19.39111328 10.41015625 C-17.07153283 6.77644294 -17.07153283 6.77644294 -15 3 C-18.96 3 -22.92 3 -27 3 C-27 2.67 -27 2.34 -27 2 C-26.37955811 1.97494385 -25.75911621 1.9498877 -25.11987305 1.92407227 C-22.30887603 1.80803279 -19.49820759 1.68534241 -16.6875 1.5625 C-15.22280273 1.50352539 -15.22280273 1.50352539 -13.72851562 1.44335938 C-12.79072266 1.40146484 -11.85292969 1.35957031 -10.88671875 1.31640625 C-9.59060669 1.26141968 -9.59060669 1.26141968 -8.26831055 1.20532227 C-5.32748693 0.93912566 -2.99885554 0 0 0 Z " fill="#693F2E" transform="translate(290,208)"/>
<path d="M0 0 C4.70588235 0.70588235 4.70588235 0.70588235 6 2 C6.04097822 4.12501339 5.98277375 6.25232576 5.875 8.375 C5.83117187 9.53773438 5.78734375 10.70046875 5.7421875 11.8984375 C5 15 5 15 2.4453125 16.9140625 C1.23488281 17.45160156 1.23488281 17.45160156 0 18 C0 14.7 0 11.4 0 8 C-1.12792969 8.61746094 -2.25585938 9.23492187 -3.41796875 9.87109375 C-12.25491975 14.65026113 -21.17312256 19.14937096 -30.375 23.1875 C-31.25953857 23.58573975 -32.14407715 23.98397949 -33.05541992 24.39428711 C-34.30802612 24.93194702 -34.30802612 24.93194702 -35.5859375 25.48046875 C-36.3186084 25.79910889 -37.0512793 26.11774902 -37.80615234 26.44604492 C-40.49751295 27.12562396 -42.34537076 26.71013518 -45 26 C-41.23179555 21.58210512 -37.06355676 19.2629331 -31.9375 16.59765625 C-29.11728741 15.06379063 -26.52620079 13.36903469 -23.875 11.5625 C-17.76609771 7.57573092 -11.19311425 5.02672551 -4.4296875 2.3828125 C-1.21720622 1.34767079 -1.21720622 1.34767079 0 0 Z " fill="#A7AA97" transform="translate(124,449)"/>
<path d="M0 0 C-1.62339805 1.70884005 -3.29319053 3.37446717 -5 5 C-5.66 5 -6.32 5 -7 5 C-7.33 5.99 -7.66 6.98 -8 8 C-8.99 8 -9.98 8 -11 8 C-11 8.66 -11 9.32 -11 10 C-28.74191416 18.38217046 -28.74191416 18.38217046 -36.76953125 21.96484375 C-38.67918681 22.85111122 -40.53464369 23.85257983 -42.375 24.875 C-45.420348 26.18014914 -46.89062277 26.00597499 -50 25 C-48.66706145 21.83401133 -47.55725395 20.39611902 -44.53515625 18.7734375 C-43.82665527 18.38607422 -43.1181543 17.99871094 -42.38818359 17.59960938 C-41.62070801 17.19548828 -40.85323242 16.79136719 -40.0625 16.375 C-39.26924316 15.94767578 -38.47598633 15.52035156 -37.65869141 15.08007812 C-35.9748706 14.17561449 -34.28825872 13.27633079 -32.59912109 12.38183594 C-30.00980911 11.00521506 -27.43574741 9.60312003 -24.86328125 8.1953125 C-23.20103455 7.29592489 -21.53828869 6.39745912 -19.875 5.5 C-19.10679932 5.07895996 -18.33859863 4.65791992 -17.54711914 4.22412109 C-5.90571722 -1.96857241 -5.90571722 -1.96857241 0 0 Z " fill="#AAAB97" transform="translate(110,479)"/>
<path d="M0 0 C5.2550742 4.28985649 9.64148115 8.81644604 14 14 C14.96148799 15.12303974 15.92378978 16.24538305 16.88671875 17.3671875 C17.9039933 18.55699468 18.92091978 19.74709953 19.9375 20.9375 C20.43475586 21.51765869 20.93201172 22.09781738 21.44433594 22.69555664 C25 26.88509433 25 26.88509433 25 28 C22.36 27.67 19.72 27.34 17 27 C17 26.67 17 26.34 17 26 C15.35 25.67 13.7 25.34 12 25 C11.505 22.525 11.505 22.525 11 20 C10.34 20 9.68 20 9 20 C9 18.35 9 16.7 9 15 C6.02934491 15.34227572 6.02934491 15.34227572 3 16 C2.67 16.66 2.34 17.32 2 18 C2 17.34 2 16.68 2 16 C0.906875 15.896875 -0.18625 15.79375 -1.3125 15.6875 C-5 15 -5 15 -6.9375 13.8125 C-8.66867006 10.85932755 -8.72561778 9.36422791 -8 6 C-5.55247023 3.64845179 -2.86732117 1.80487627 0 0 Z " fill="#9B424A" transform="translate(361,67)"/>
<path d="M0 0 C0.721875 0.2475 1.44375 0.495 2.1875 0.75 C2.6825 3.225 2.6825 3.225 3.1875 5.75 C-3.6694646 11.62441175 -10.49893939 17.44408348 -17.8125 22.75 C-17.8125 22.09 -17.8125 21.43 -17.8125 20.75 C-18.8025 20.75 -19.7925 20.75 -20.8125 20.75 C-20.8125 19.76 -20.8125 18.77 -20.8125 17.75 C-22.7925 18.08 -24.7725 18.41 -26.8125 18.75 C-26.8125 19.41 -26.8125 20.07 -26.8125 20.75 C-27.8025 20.75 -28.7925 20.75 -29.8125 20.75 C-30.1425 21.74 -30.4725 22.73 -30.8125 23.75 C-33.1225 24.08 -35.4325 24.41 -37.8125 24.75 C-33.96599775 21.4969581 -29.96992128 18.99708754 -25.625 16.5 C-18.21892984 12.15673322 -11.70709353 7.11750568 -5.21484375 1.50390625 C-2.8125 -0.25 -2.8125 -0.25 0 0 Z " fill="#903E45" transform="translate(407.8125,17.25)"/>
<path d="M0 0 C2.5 1.265625 2.5 1.265625 5 4 C5.59872305 7.93947029 5.28190249 11.7879144 5 15.75 C4.93820557 16.8649585 4.87641113 17.97991699 4.81274414 19.12866211 C4.25346571 27.92539444 3.03219278 36.42389083 1 45 C-0.32 45 -1.64 45 -3 45 C-4.25987994 42.48024011 -3.72120044 40.95356527 -3.28466797 38.25195312 C-2.54386798 32.39162801 -2.62831347 26.41143237 -2.48242188 20.51171875 C-2.25685677 13.50643255 -1.46261524 6.8557418 0 0 Z " fill="#BEC1AC" transform="translate(104,488)"/>
<path d="M0 0 C0.33985476 9.57886925 -0.10001305 18.21503288 -2.24609375 27.59765625 C-3.07592794 31.04584431 -3.07592794 31.04584431 -3.41015625 34.80859375 C-3.60480469 35.86175781 -3.79945312 36.91492188 -4 38 C-4.99 38.66 -5.98 39.32 -7 40 C-7.66 39.67 -8.32 39.34 -9 39 C-8.93941406 38.1028125 -8.87882812 37.205625 -8.81640625 36.28125 C-8.73261719 35.0334375 -8.64882812 33.785625 -8.5625 32.5 C-8.51665771 31.83307129 -8.47081543 31.16614258 -8.42358398 30.47900391 C-8.17780881 26.85940595 -7.95635738 23.24093755 -7.78125 19.6171875 C-7.74443115 18.90755859 -7.7076123 18.19792969 -7.66967773 17.46679688 C-7.56711773 15.46512458 -7.47281697 13.46303423 -7.37890625 11.4609375 C-6.90189357 7.10389389 -6.27445918 4.11997928 -2.9375 1.1875 C-1 0 -1 0 0 0 Z " fill="#A4A593" transform="translate(129,466)"/>
<path d="M0 0 C1.32 0.33 2.64 0.66 4 1 C4.22379488 12.55030268 3.91025574 23.5896331 2 35 C1.01 35 0.02 35 -1 35 C-3 33 -3 33 -3.265625 30.171875 C-3.26046875 29.04265625 -3.2553125 27.9134375 -3.25 26.75 C-3.25515625 25.63109375 -3.2603125 24.5121875 -3.265625 23.359375 C-2.88285502 18.51846056 -1.68807324 15.03210986 1 11 C0.34 11 -0.32 11 -1 11 C-1 10.01 -1 9.02 -1 8 C-2.65 8 -4.3 8 -6 8 C-6.33 6.68 -6.66 5.36 -7 4 C-6.01 4 -5.02 4 -4 4 C-3.67 3.34 -3.34 2.68 -3 2 C-2.01 2 -1.02 2 0 2 C0 1.34 0 0.68 0 0 Z " fill="#BEBDA7" transform="translate(116,463)"/>
<path d="M0 0 C0.27864602 7.28075084 -0.78872238 14.19613365 -1.9375 21.375 C-2.11990234 22.56222656 -2.30230469 23.74945313 -2.49023438 24.97265625 C-3.86245069 33.72490137 -3.86245069 33.72490137 -5 36 C-6.32 36 -7.64 36 -9 36 C-9.158057 28.23984028 -8.66504697 20.60392427 -8 12.875 C-7.90460938 11.72773438 -7.80921875 10.58046875 -7.7109375 9.3984375 C-7.47762017 6.59862951 -7.2405706 3.79919247 -7 1 C-6.34 1.99 -5.68 2.98 -5 4 C-4.360625 3.34 -3.72125 2.68 -3.0625 2 C-1 0 -1 0 0 0 Z " fill="#9C9F8D" transform="translate(139,455)"/>
<path d="M0 0 C4.70588235 0.70588235 4.70588235 0.70588235 6 2 C6.04097822 4.12501339 5.98277375 6.25232576 5.875 8.375 C5.83117187 9.53773438 5.78734375 10.70046875 5.7421875 11.8984375 C5 15 5 15 2.4453125 16.9140625 C1.23488281 17.45160156 1.23488281 17.45160156 0 18 C0 14.7 0 11.4 0 8 C-1.2375 8.7425 -1.2375 8.7425 -2.5 9.5 C-6.75488188 11.32352081 -9.42308671 11.23673689 -14 11 C-14 8 -14 8 -12.8203125 6.4453125 C-10.61941964 4.69782246 -8.50713651 3.84958116 -5.875 2.875 C-2.68358377 1.84978201 -2.68358377 1.84978201 0 0 Z " fill="#C2C2AC" transform="translate(124,449)"/>
<path d="M0 0 C0.66 0.33 1.32 0.66 2 1 C2 3.31 2 5.62 2 8 C-3.57440358 10.86321638 -9.19080805 13.40417379 -15 15.75 C-15.77472656 16.06582031 -16.54945312 16.38164062 -17.34765625 16.70703125 C-19.2306271 17.47416752 -21.11514998 18.23749249 -23 19 C-23.66 18.01 -24.32 17.02 -25 16 C-20.30856849 11.95769738 -15.10120168 8.86978088 -9.8125 5.6875 C-8.89791016 5.12482422 -7.98332031 4.56214844 -7.04101562 3.98242188 C-6.16767578 3.45583984 -5.29433594 2.92925781 -4.39453125 2.38671875 C-3.59893799 1.90420654 -2.80334473 1.42169434 -1.98364258 0.92456055 C-1.32904053 0.61945557 -0.67443848 0.31435059 0 0 Z " fill="#A0A390" transform="translate(114,444)"/>
<path d="M0 0 C0 0.66 0 1.32 0 2 C-0.99 2 -1.98 2 -3 2 C-0.92446352 2.5534764 0.84365964 3 3 3 C3.33 3.99 3.66 4.98 4 6 C2.6875 6.58333333 1.375 7.16666667 0.0625 7.75 C-0.75734375 8.11480469 -1.5771875 8.47960937 -2.421875 8.85546875 C-4.0768282 9.59016767 -5.73298004 10.32217587 -7.390625 11.05078125 C-8.14859375 11.38464844 -8.9065625 11.71851563 -9.6875 12.0625 C-10.42871094 12.38734375 -11.16992188 12.7121875 -11.93359375 13.046875 C-13.74751401 13.88354144 -15.50538763 14.8395431 -17.25 15.8125 C-20.37996562 17.16407606 -21.80428653 17.0339073 -25 16 C-23.60044043 12.55247153 -22.23783225 11.22843476 -18.97265625 9.4921875 C-17.78446289 8.84830078 -17.78446289 8.84830078 -16.57226562 8.19140625 C-15.74404297 7.75699219 -14.91582031 7.32257813 -14.0625 6.875 C-12.42791194 5.99827802 -10.79377868 5.12070744 -9.16015625 4.2421875 C-8.43449463 3.8591748 -7.70883301 3.47616211 -6.96118164 3.08154297 C-1.37336343 0 -1.37336343 0 0 0 Z " fill="#9EA08F" transform="translate(85,488)"/>
<path d="M0 0 C0.66 1.32 1.32 2.64 2 4 C1.54625 4.474375 1.0925 4.94875 0.625 5.4375 C-0.97741799 7.9643899 -1.39220998 9.43376172 -1.9375 12.3125 C-2.82280997 16.88281813 -4.50389294 20.08943228 -7 24 C-7.66 24 -8.32 24 -9 24 C-13 18.58823529 -13 18.58823529 -13 16 C-12.34 16 -11.68 16 -11 16 C-10.773125 15.2575 -10.54625 14.515 -10.3125 13.75 C-9 11 -9 11 -6.4375 9 C-3.55467287 6.63460338 -3.56053683 5.5500666 -3 2 C-2.01 1.34 -1.02 0.68 0 0 Z " fill="#6D3E2C" transform="translate(192,347)"/>
<path d="M0 0 C1.31538327 4.15771494 0.34433068 6.8879297 -1 11 C-1.33 11 -1.66 11 -2 11 C-2 9.02 -2 7.04 -2 5 C-2.94875 5.825 -3.8975 6.65 -4.875 7.5 C-7.75 10 -7.75 10 -10 10 C-10 10.66 -10 11.32 -10 12 C-11.46809505 13.31153763 -13.00195784 14.54994075 -14.5625 15.75 C-17.78855875 18.25763148 -20.94466538 20.78701789 -24 23.5 C-27 26 -27 26 -29 26 C-29.33 26.99 -29.66 27.98 -30 29 C-31.35107422 30.31860352 -31.35107422 30.31860352 -33.0546875 31.62890625 C-33.66957031 32.10650391 -34.28445313 32.58410156 -34.91796875 33.07617188 C-35.56378906 33.56666016 -36.20960938 34.05714844 -36.875 34.5625 C-37.51308594 35.05685547 -38.15117187 35.55121094 -38.80859375 36.06054688 C-41.49505481 38.13287957 -44.17477985 40.1165199 -47 42 C-47.66 41.34 -48.32 40.68 -49 40 C-48.15566406 39.46375 -47.31132812 38.9275 -46.44140625 38.375 C-42.68481887 35.86987334 -39.3305019 32.97025519 -35.9375 30 C-34.73895282 28.95756069 -33.5397461 27.91587915 -32.33984375 26.875 C-31.77120605 26.38128906 -31.20256836 25.88757813 -30.61669922 25.37890625 C-29.18758084 24.15999043 -27.72308144 22.98282448 -26.25390625 21.8125 C-24.35876015 20.28850036 -22.70984276 18.71893766 -21 17 C-19.51394407 15.77455836 -18.01218207 14.56805274 -16.5 13.375 C-10.95300036 8.97339851 -5.47209774 4.49419434 0 0 Z " fill="#72292F" transform="translate(410,23)"/>
<path d="M0 0 C0.33 0 0.66 0 1 0 C0.67 8.25 0.34 16.5 0 25 C0.66 25 1.32 25 2 25 C2.33 23.02 2.66 21.04 3 19 C3.66 19 4.32 19 5 19 C4.41523944 26.09406894 3.36766005 33.01563899 2 40 C0.68 40 -0.64 40 -2 40 C-3.25744994 37.48510012 -2.72465735 35.97056504 -2.2890625 33.27392578 C-1.52434308 27.25821913 -1.58432281 21.12802241 -1.39453125 15.07226562 C-1.35714844 13.99525391 -1.31976563 12.91824219 -1.28125 11.80859375 C-1.25095703 10.83720459 -1.22066406 9.86581543 -1.18945312 8.86499023 C-0.99064515 5.85853194 -0.54192871 2.96223277 0 0 Z " fill="#848778" transform="translate(103,493)"/>
<path d="M0 0 C-0.99 0 -1.98 0 -3 0 C-3.33 0.99 -3.66 1.98 -4 3 C-4.99 2.67 -5.98 2.34 -7 2 C-6.67 3.32 -6.34 4.64 -6 6 C-4.35 6 -2.7 6 -1 6 C-0.67 7.32 -0.34 8.64 0 10 C-0.99 10.495 -0.99 10.495 -2 11 C-2 9.68 -2 8.36 -2 7 C-2.70125 7.33 -3.4025 7.66 -4.125 8 C-7.26003116 9.09044562 -9.70563182 9.15322643 -13 9 C-13 9.66 -13 10.32 -13 11 C-14.98 11.33 -16.96 11.66 -19 12 C-19.33 10.35 -19.66 8.7 -20 7 C-17.42362412 5.63092584 -14.84031896 4.27971545 -12.25 2.9375 C-11.52039063 2.54755859 -10.79078125 2.15761719 -10.0390625 1.75585938 C-9.33007812 1.39169922 -8.62109375 1.02753906 -7.890625 0.65234375 C-7.24125977 0.31195068 -6.59189453 -0.02844238 -5.92285156 -0.37915039 C-3.58008982 -1.13558044 -2.29543427 -0.78821819 0 0 Z " fill="#ACAD98" transform="translate(116,465)"/>
<path d="M0 0 C0.15178302 9.05638678 -0.30962574 17.97582223 -1 27 C-1.33 27 -1.66 27 -2 27 C-2.66 20.4 -3.32 13.8 -4 7 C-9.592701 5.8814598 -9.61795079 6.23238997 -14 9 C-14.99 8.67 -15.98 8.34 -17 8 C-14.12071475 5.72195761 -11.2169671 3.95965316 -7.9375 2.3125 C-7.08027344 1.87550781 -6.22304687 1.43851562 -5.33984375 0.98828125 C-3 0 -3 0 0 0 Z " fill="#6B4C3A" transform="translate(133,444)"/>
<path d="M0 0 C2.0078125 1.1015625 2.0078125 1.1015625 4 3 C4.2421875 5.9609375 4.2421875 5.9609375 3.875 9.375 C3.76929687 10.49648438 3.66359375 11.61796875 3.5546875 12.7734375 C3.03797761 15.77908799 2.25430457 18.23223702 1 21 C0.01 20.67 -0.98 20.34 -2 20 C-2.3690205 6.3667426 -2.3690205 6.3667426 0 0 Z " fill="#8C8F7F" transform="translate(113,499)"/>
<path d="M0 0 C0.66 0.33 1.32 0.66 2 1 C1.67 1.763125 1.34 2.52625 1 3.3125 C-0.17436686 5.99069135 -0.17436686 5.99069135 0 9 C1.93897879 11.67398476 1.93897879 11.67398476 4 14 C3.59007812 14.60328125 3.18015625 15.2065625 2.7578125 15.828125 C2.21898437 16.62734375 1.68015625 17.4265625 1.125 18.25 C0.59132813 19.03890625 0.05765625 19.8278125 -0.4921875 20.640625 C-2.19267206 23.21065296 -2.19267206 23.21065296 -4 27 C-4 19.08 -4 11.16 -4 3 C-3.34 3 -2.68 3 -2 3 C-1.34 2.01 -0.68 1.02 0 0 Z " fill="#4C2C1D" transform="translate(331,128)"/>
<path d="M0 0 C0.99 0.66 1.98 1.32 3 2 C3.1875 4.625 3.1875 4.625 3 7 C2.34 7 1.68 7 1 7 C-0.41377341 9.63904371 -1.37240135 12.07120629 -2 15 C-4.62187494 13.95125002 -5.79371361 13.35068687 -7.25 10.875 C-7.4975 10.25625 -7.745 9.6375 -8 9 C-6.625 7 -6.625 7 -5 5 C-4.34 5 -3.68 5 -3 5 C-2.690625 4.360625 -2.38125 3.72125 -2.0625 3.0625 C-1 1 -1 1 0 0 Z " fill="#72402D" transform="translate(337,126)"/>
<path d="M0 0 C0.680625 0.28875 1.36125 0.5775 2.0625 0.875 C2.3925 2.525 2.7225 4.175 3.0625 5.875 C0.4225 7.855 -2.2175 9.835 -4.9375 11.875 C-5.2675 10.225 -5.5975 8.575 -5.9375 6.875 C-6.2675 6.875 -6.5975 6.875 -6.9375 6.875 C-7.9275 6.545 -8.9175 6.215 -9.9375 5.875 C-3.86310175 -0.16438731 -3.86310175 -0.16438731 0 0 Z " fill="#9C424A" transform="translate(407.9375,17.125)"/>
<path d="M0 0 C1.43088528 2.86177057 0.59991697 4.93375773 0 8 C-0.66 8 -1.32 8 -2 8 C-2.28875 8.9075 -2.5775 9.815 -2.875 10.75 C-3.76531776 13.32202908 -4.71494413 15.61346766 -6 18 C-6.66 18 -7.32 18 -8 18 C-8.66 19.32 -9.32 20.64 -10 22 C-10.99 21.67 -11.98 21.34 -13 21 C-9.14900274 13.66829368 -4.66281175 6.83801922 0 0 Z " fill="#5F392C" transform="translate(272,217)"/>
<path d="M0 0 C0.66 0 1.32 0 2 0 C2 0.66 2 1.32 2 2 C2.66 2 3.32 2 4 2 C4.33 1.34 4.66 0.68 5 0 C5.66 0 6.32 0 7 0 C8.1875 2.25 8.1875 2.25 9 5 C7.9375 7.25 7.9375 7.25 6 9 C3.3125 9.75 3.3125 9.75 1 10 C1 9.34 1 8.68 1 8 C-0.65 8.66 -2.3 9.32 -4 10 C-2.66666667 6.66666667 -1.33333333 3.33333333 0 0 Z " fill="#683A2A" transform="translate(162,389)"/>
<path d="M0 0 C0.33 0.99 0.66 1.98 1 3 C2.32 2.34 3.64 1.68 5 1 C4.360625 1.721875 3.72125 2.44375 3.0625 3.1875 C1.01326465 5.98191184 0.38667054 7.61663274 0 11 C-3.875 9.25 -3.875 9.25 -5 7 C-6.98 7 -8.96 7 -11 7 C-9.47875703 3.95751406 -8.55545364 2.29161316 -5.5 0.6875 C-3 0 -3 0 0 0 Z " fill="#6D5240" transform="translate(114,472)"/>
<path d="M0 0 C2.99324263 1.0975223 3.84610901 1.67682892 5.25 4.625 C5.4975 5.40875 5.745 6.1925 6 7 C5.01 7.33 4.02 7.66 3 8 C3 8.66 3 9.32 3 10 C0.5 11.625 0.5 11.625 -2 13 C-2.05391993 11.20866022 -2.09275571 9.41686101 -2.125 7.625 C-2.14820313 6.62726563 -2.17140625 5.62953125 -2.1953125 4.6015625 C-2 2 -2 2 0 0 Z " fill="#93454B" transform="translate(354,59)"/>
<path d="M0 0 C-0.75 2.4375 -0.75 2.4375 -2 5 C-4.15342034 5.87482701 -5.69010775 6 -8 6 C-8 5.34 -8 4.68 -8 4 C-8.99 4 -9.98 4 -11 4 C-11 4.66 -11 5.32 -11 6 C-11.66 6 -12.32 6 -13 6 C-13 5.01 -13 4.02 -13 3 C-17.62 3 -22.24 3 -27 3 C-27 2.67 -27 2.34 -27 2 C-26.37955811 1.97494385 -25.75911621 1.9498877 -25.11987305 1.92407227 C-22.30887603 1.80803279 -19.49820759 1.68534241 -16.6875 1.5625 C-15.22280273 1.50352539 -15.22280273 1.50352539 -13.72851562 1.44335938 C-12.79072266 1.40146484 -11.85292969 1.35957031 -10.88671875 1.31640625 C-9.59060669 1.26141968 -9.59060669 1.26141968 -8.26831055 1.20532227 C-5.32748693 0.93912566 -2.99885554 0 0 0 Z " fill="#6A4D3E" transform="translate(290,208)"/>
<path d="M0 0 C1 2 1 2 0.375 4.0625 C-1 6 -1 6 -3.625 6.75 C-4.800625 6.87375 -4.800625 6.87375 -6 7 C-6 6.34 -6 5.68 -6 5 C-7.98 5.33 -9.96 5.66 -12 6 C-12 5.34 -12 4.68 -12 4 C-11.01 4 -10.02 4 -9 4 C-9 3.01 -9 2.02 -9 1 C-5.68042385 -1.0901035 -3.73206842 -1.21040057 0 0 Z " fill="#ACAF9A" transform="translate(94,486)"/>
<path d="M0 0 C2.51083114 1.25541557 2.87125446 2.50063488 4 5 C-4.03501094 9.07877462 -4.03501094 9.07877462 -8.0625 8.75 C-8.701875 8.5025 -9.34125 8.255 -10 8 C-6.91367389 4.7373124 -4.06516496 1.97764782 0 0 Z " fill="#9DA090" transform="translate(89,467)"/>
<path d="M0 0 C0.33 0 0.66 0 1 0 C1.33 1.98 1.66 3.96 2 6 C2.66 4.68 3.32 3.36 4 2 C4.33 2 4.66 2 5 2 C4.9131252 3.95917659 4.80495488 5.91741871 4.6875 7.875 C4.62949219 8.96554687 4.57148437 10.05609375 4.51171875 11.1796875 C4.34285156 12.11039062 4.17398438 13.04109375 4 14 C3.01 14.66 2.02 15.32 1 16 C0.34 15.67 -0.32 15.34 -1 15 C-0.67 10.05 -0.34 5.1 0 0 Z " fill="#8B8D7E" transform="translate(121,490)"/>
<path d="M0 0 C0 0.99 0 1.98 0 3 C0.66 3.33 1.32 3.66 2 4 C-4.27692308 8.06153846 -4.27692308 8.06153846 -7.9375 7.75 C-8.618125 7.5025 -9.29875 7.255 -10 7 C-8.89184175 3.78634109 -8.01470446 3.0085776 -5 1.25 C-2 0 -2 0 0 0 Z " fill="#919386" transform="translate(70,497)"/>
<path d="M0 0 C0.66 0.33 1.32 0.66 2 1 C1.67 1.66 1.34 2.32 1 3 C3.97 3.495 3.97 3.495 7 4 C3.4912812 7.09592835 0.50802601 8.74194623 -4 10 C-3.835 9.071875 -3.67 8.14375 -3.5 7.1875 C-2.92251612 4.04378647 -2.92251612 4.04378647 -3 1 C-2.01 0.67 -1.02 0.34 0 0 Z " fill="#979B89" transform="translate(109,456)"/>
<path d="M0 0 C0.33 0.66 0.66 1.32 1 2 C-0.95453734 7.34926009 -3.22260475 13.3027029 -8.25 16.375 C-8.8275 16.58125 -9.405 16.7875 -10 17 C-10 17.66 -10 18.32 -10 19 C-10.66 18.67 -11.32 18.34 -12 18 C-8.04 12.06 -4.08 6.12 0 0 Z " fill="#543023" transform="translate(348,103)"/>
<path d="M0 0 C0.66 0.33 1.32 0.66 2 1 C1.01 2.32 0.02 3.64 -1 5 C-0.01 5.33 0.98 5.66 2 6 C0.5682384 6.69937202 -0.87067032 7.38412718 -2.3125 8.0625 C-3.11300781 8.44535156 -3.91351563 8.82820313 -4.73828125 9.22265625 C-7 10 -7 10 -10 9 C-10 8.01 -10 7.02 -10 6 C-7.8828125 4.359375 -7.8828125 4.359375 -5.125 2.75 C-3.76761719 1.93789063 -3.76761719 1.93789063 -2.3828125 1.109375 C-1.20332031 0.56023437 -1.20332031 0.56023437 0 0 Z " fill="#929486" transform="translate(80,481)"/>
<path d="M0 0 C0.66 0.33 1.32 0.66 2 1 C2 3.31 2 5.62 2 8 C-1.465 9.485 -1.465 9.485 -5 11 C-5 10.34 -5 9.68 -5 9 C-4.34 9 -3.68 9 -3 9 C-3.33 8.01 -3.66 7.02 -4 6 C-6.01508358 5.26676204 -6.01508358 5.26676204 -8 5 C-6.71475739 4.13619741 -5.42157581 3.28419631 -4.125 2.4375 C-3.04605469 1.72400391 -3.04605469 1.72400391 -1.9453125 0.99609375 C-1.30335937 0.66738281 -0.66140625 0.33867187 0 0 Z " fill="#8B8D7B" transform="translate(114,444)"/>
<path d="M0 0 C0 0.66 0 1.32 0 2 C0.99 2 1.98 2 3 2 C2 5 2 5 -0.9375 6.6875 C-4 8 -4 8 -6 8 C-6.33 6.02 -6.66 4.04 -7 2 C-2.25 0 -2.25 0 0 0 Z " fill="#B3B3A0" transform="translate(122,443)"/>
<path d="M0 0 C0.33 0 0.66 0 1 0 C1.03738281 0.62648438 1.07476562 1.25296875 1.11328125 1.8984375 C1.17902344 2.71570313 1.24476562 3.53296875 1.3125 4.375 C1.37050781 5.18710937 1.42851563 5.99921875 1.48828125 6.8359375 C1.82990528 9.37921338 1.82990528 9.37921338 5 11 C5.33 8.36 5.66 5.72 6 3 C6.33 3 6.66 3 7 3 C7.02712066 4.43739513 7.04645067 5.87493863 7.0625 7.3125 C7.07410156 8.11300781 7.08570312 8.91351563 7.09765625 9.73828125 C7 12 7 12 6 15 C0.25 13.125 0.25 13.125 -2 12 C-2 10.02 -2 8.04 -2 6 C-1.67 6 -1.34 6 -1 6 C-0.67 4.02 -0.34 2.04 0 0 Z " fill="#5A5C50" transform="translate(112,487)"/>
<path d="M0 0 C0.33 0.66 0.66 1.32 1 2 C1.66 2 2.32 2 3 2 C2.53439347 6.74918662 1.83067342 10.10782405 -1 14 C-1.33 14 -1.66 14 -2 14 C-2.05389087 12.04196493 -2.09274217 10.08351091 -2.125 8.125 C-2.14820312 7.03445313 -2.17140625 5.94390625 -2.1953125 4.8203125 C-2 2 -2 2 0 0 Z " fill="#B7B8A6" transform="translate(124,483)"/>
<path d="M0 0 C-0.66 0.66 -1.32 1.32 -2 2 C-1.01 2.99 -0.02 3.98 1 5 C-6.42857143 6.28571429 -6.42857143 6.28571429 -10 5 C-9.01906046 2.54765115 -8.31296172 1.2190732 -6.125 -0.3125 C-3.64990694 -1.1132654 -2.41712366 -0.86325845 0 0 Z " fill="#C2C0A7" transform="translate(119,454)"/>
<path d="M0 0 C0.66 0.66 1.32 1.32 2 2 C1.6730244 4.61580479 1.17960932 6.64078137 0 9 C-2.64 9 -5.28 9 -8 9 C-7 7 -6 5 -5 3 C-3.66666667 2.66666667 -2.33333333 2.33333333 -1 2 C-0.67 1.34 -0.34 0.68 0 0 Z " fill="#9E434E" transform="translate(402,21)"/>
<path d="M0 0 C-1.65 1.32 -3.3 2.64 -5 4 C-4.34 5.32 -3.68 6.64 -3 8 C-5.97 7.505 -5.97 7.505 -9 7 C-9 6.34 -9 5.68 -9 5 C-10.98 5.33 -12.96 5.66 -15 6 C-11.57875892 3.02500775 -4.44240633 -2.22120316 0 0 Z " fill="#898878" transform="translate(131,438)"/>
<path d="M0 0 C0.33 0.66 0.66 1.32 1 2 C0.34 2 -0.32 2 -1 2 C-1.268125 2.639375 -1.53625 3.27875 -1.8125 3.9375 C-3 6 -3 6 -6 7 C-6.309375 7.639375 -6.61875 8.27875 -6.9375 8.9375 C-8.2342338 11.45468915 -9.4221737 11.96886948 -12 13 C-12 10 -12 10 -10.64453125 8.28125 C-7.29588808 5.02542636 -4.1949781 2.16104932 0 0 Z " fill="#6D3337" transform="translate(369,42)"/>
<path d="M0 0 C0.66 0.33 1.32 0.66 2 1 C1.67 2.32 1.34 3.64 1 5 C1.66 5 2.32 5 3 5 C3.33 4.34 3.66 3.68 4 3 C4.99 3.66 5.98 4.32 7 5 C2.8794254 6.99785435 -0.45194365 7.17835515 -5 7 C-4.60196439 4.11424181 -4.20990931 3.17810487 -1.9375 1.25 C-1.298125 0.8375 -0.65875 0.425 0 0 Z " fill="#ACAC98" transform="translate(178,384)"/>
<path d="M0 0 C3.98041503 3.98041503 4.12383175 9.12129116 4.1953125 14.49609375 C4.18215261 16.47665746 4.1584993 18.45717589 4.125 20.4375 C4.11597656 21.45521484 4.10695313 22.47292969 4.09765625 23.52148438 C4.07424698 26.01457156 4.041457 28.50715859 4 31 C3.67 31 3.34 31 3 31 C2.98018066 30.37955811 2.96036133 29.75911621 2.93994141 29.11987305 C2.84468155 26.30865463 2.73500698 23.49817834 2.625 20.6875 C2.57859375 19.22280273 2.57859375 19.22280273 2.53125 17.72851562 C2.49257813 16.79072266 2.45390625 15.85292969 2.4140625 14.88671875 C2.3826416 14.02264404 2.3512207 13.15856934 2.31884766 12.26831055 C2.12811963 9.72257555 2.12811963 9.72257555 0 7 C-0.07905064 4.66800612 -0.08798769 2.33167378 0 0 Z " fill="#707166" transform="translate(421,198)"/>
<path d="M0 0 C0.99 0 1.98 0 3 0 C1.56438314 3.18706942 -0.20266329 5.62169105 -2.5 8.25 C-3.1084375 8.95640625 -3.716875 9.6628125 -4.34375 10.390625 C-6 12 -6 12 -8 12 C-7.67 10.35 -7.34 8.7 -7 7 C-6.34 7 -5.68 7 -5 7 C-5 6.34 -5 5.68 -5 5 C-3.68 5 -2.36 5 -1 5 C-0.67 3.35 -0.34 1.7 0 0 Z " fill="#949587" transform="translate(311,188)"/>
<path d="M0 0 C0.66 0 1.32 0 2 0 C2.33 2.97 2.66 5.94 3 9 C6.31460705 7.29107501 6.31460705 7.29107501 6.6875 3.875 C6.790625 2.92625 6.89375 1.9775 7 1 C7.33 1 7.66 1 8 1 C8 5.62 8 10.24 8 15 C7.67 15 7.34 15 7 15 C6.67 13.35 6.34 11.7 6 10 C3.525 11.485 3.525 11.485 1 13 C0.67 8.71 0.34 4.42 0 0 Z " fill="#767262" transform="translate(122,457)"/>
<path d="M0 0 C1.32 0.99 2.64 1.98 4 3 C4 3.99 4 4.98 4 6 C3.01 6.495 3.01 6.495 2 7 C2.04125 7.721875 2.0825 8.44375 2.125 9.1875 C1.99078695 12.20729369 1.24829381 14.26935729 0 17 C-0.33 17 -0.66 17 -1 17 C-0.67 11.39 -0.34 5.78 0 0 Z " fill="#674A3A" transform="translate(328,138)"/>
<path d="M0 0 C0.66 0.33 1.32 0.66 2 1 C-1.55482865 4.92902114 -5.98280715 7.37280232 -11 9 C-11.66 8.67 -12.32 8.34 -13 8 C-11.58531689 7.03874097 -10.1681636 6.08111675 -8.75 5.125 C-7.96109375 4.59132812 -7.1721875 4.05765625 -6.359375 3.5078125 C-4.26684277 2.17053197 -2.30109848 0.93420665 0 0 Z " fill="#909284" transform="translate(349,176)"/>
<path d="M0 0 C2.375 0.6875 2.375 0.6875 3.375 1.6875 C3.41592937 4.02047433 3.41741723 6.35455225 3.375 8.6875 C2.055 7.0375 0.735 5.3875 -0.625 3.6875 C-1.615 4.0175 -2.605 4.3475 -3.625 4.6875 C-4.285 4.3575 -4.945 4.0275 -5.625 3.6875 C-5.625 3.0275 -5.625 2.3675 -5.625 1.6875 C-2.625 -0.3125 -2.625 -0.3125 0 0 Z " fill="#BBB6A0" transform="translate(126.625,449.3125)"/>
<path d="M0 0 C2.475 0.495 2.475 0.495 5 1 C4.67 2.32 4.34 3.64 4 5 C6.97 5.495 6.97 5.495 10 6 C9.34 7.65 8.68 9.3 8 11 C4.31993178 7.61831569 2.0214155 4.57478244 0 0 Z " fill="#969887" transform="translate(118,180)"/>
<path d="M0 0 C0.66 0 1.32 0 2 0 C2.66 0.99 3.32 1.98 4 3 C4.99 2.67 5.98 2.34 7 2 C7.66 2.33 8.32 2.66 9 3 C9 2.34 9 1.68 9 1 C9.99 1.33 10.98 1.66 12 2 C9.36 3.65 6.72 5.3 4 7 C2.02 5.35 0.04 3.7 -2 2 C-1.34 1.34 -0.68 0.68 0 0 Z " fill="#828174" transform="translate(94,473)"/>
<path d="M0 0 C1.98 0 3.96 0 6 0 C4.68775452 3.93673644 3.08089673 6.22719294 0 9 C-0.84454356 5.62182575 -1.10844919 3.32534757 0 0 Z " fill="#9D9F8D" transform="translate(196,187)"/>
<path d="M0 0 C1.56393356 3.97376829 0.36145292 6.81377903 -0.9375 10.75 C-1.31777344 11.92046875 -1.69804687 13.0909375 -2.08984375 14.296875 C-2.39019531 15.18890625 -2.69054687 16.0809375 -3 17 C-3.33 17 -3.66 17 -4 17 C-4 13.7 -4 10.4 -4 7 C-3.01 6.67 -2.02 6.34 -1 6 C-1.020625 5.195625 -1.04125 4.39125 -1.0625 3.5625 C-1 1 -1 1 0 0 Z " fill="#8E8F81" transform="translate(326,157)"/>
<path d="M0 0 C1.32 1.32 2.64 2.64 4 4 C3.34 6.31 2.68 8.62 2 11 C1.01 10.34 0.02 9.68 -1 9 C-1.47114738 6.2572492 -1.17805784 3.80441103 -1 1 C-0.67 0.67 -0.34 0.34 0 0 Z " fill="#BEC1AC" transform="translate(113,499)"/>
<path d="M0 0 C1.875 0.25 1.875 0.25 4 1 C5.25 3.0625 5.25 3.0625 6 5 C3.35261084 6.4606285 2.10551666 7 -1 7 C-0.67 4.69 -0.34 2.38 0 0 Z " fill="#ACB09B" transform="translate(91,475)"/>
<path d="M0 0 C0.33 0 0.66 0 1 0 C0.67 6.6 0.34 13.2 0 20 C-0.33 20 -0.66 20 -1 20 C-1.22224251 17.41718164 -1.42823488 14.83477813 -1.625 12.25 C-1.72167969 11.15558594 -1.72167969 11.15558594 -1.8203125 10.0390625 C-2.10381649 6.14088264 -2.27081383 3.29354678 0 0 Z " fill="#18180F" transform="translate(132,451)"/>
<path d="M0 0 C0.66 0.33 1.32 0.66 2 1 C1.55269531 1.3403125 1.10539063 1.680625 0.64453125 2.03125 C-3.58217852 5.41982756 -6.34963062 8.70888311 -8.95703125 13.4609375 C-9.30121094 13.96882813 -9.64539063 14.47671875 -10 15 C-10.66 15 -11.32 15 -12 15 C-9.87209933 8.42285246 -5.45517519 4.05241586 0 0 Z " fill="#7F8073" transform="translate(128,97)"/>
<path d="M0 0 C1.32 0 2.64 0 4 0 C4 1.65 4 3.3 4 5 C1.69 5.33 -0.62 5.66 -3 6 C-2 4 -1 2 0 0 Z " fill="#ADB09C" transform="translate(82,480)"/>
<path d="M0 0 C0.8353125 0.37125 0.8353125 0.37125 1.6875 0.75 C1.3575 1.41 1.0275 2.07 0.6875 2.75 C0.0275 2.75 -0.6325 2.75 -1.3125 2.75 C-1.6425 3.74 -1.9725 4.73 -2.3125 5.75 C-3.3025 6.08 -4.2925 6.41 -5.3125 6.75 C-5.9725 5.76 -6.6325 4.77 -7.3125 3.75 C-2.88173077 -0.31153846 -2.88173077 -0.31153846 0 0 Z " fill="#9EA190" transform="translate(96.3125,456.25)"/>
<path d="M0 0 C0.99 0 1.98 0 3 0 C3.33 1.32 3.66 2.64 4 4 C2.68 4 1.36 4 0 4 C-0.33 5.65 -0.66 7.3 -1 9 C-1.33 8.34 -1.66 7.68 -2 7 C-2.66 6.67 -3.32 6.34 -4 6 C-3.34 4.68 -2.68 3.36 -2 2 C-1.34 2 -0.68 2 0 2 C0 1.34 0 0.68 0 0 Z " fill="#763D29" transform="translate(279,212)"/>
<path d="M0 0 C0.99 0.66 1.98 1.32 3 2 C2.67 3.32 2.34 4.64 2 6 C1.34 6 0.68 6 0 6 C-0.66 7.32 -1.32 8.64 -2 10 C-2 7.03 -2 4.06 -2 1 C-1.34 0.67 -0.68 0.34 0 0 Z " fill="#C2C4AD" transform="translate(116,478)"/>
<path d="M0 0 C0.66 0 1.32 0 2 0 C1.36276989 3.47290409 -0.02437217 5.84354753 -2 8.75 C-2.804375 9.94882813 -2.804375 9.94882813 -3.625 11.171875 C-4.07875 11.77515625 -4.5325 12.3784375 -5 13 C-5.33 13 -5.66 13 -6 13 C-6.1875 10.6875 -6.1875 10.6875 -6 8 C-4.5 6.3125 -4.5 6.3125 -3 5 C-3 4.34 -3 3.68 -3 3 C-2.34 3 -1.68 3 -1 3 C-0.67 2.01 -0.34 1.02 0 0 Z " fill="#543128" transform="translate(341,128)"/>
<path d="M0 0 C0.33 0 0.66 0 1 0 C1 3.96 1 7.92 1 12 C-0.32 10.68 -1.64 9.36 -3 8 C-3.66 7.67 -4.32 7.34 -5 7 C-4.360625 6.21625 -3.72125 5.4325 -3.0625 4.625 C-1.01857687 2.20460719 -1.01857687 2.20460719 0 0 Z " fill="#ABAB9A" transform="translate(119,471)"/>
<path d="M0 0 C1.32 0.33 2.64 0.66 4 1 C0.98112756 4.48331435 -1.56909529 5.79157144 -6 7 C-6 5.68 -6 4.36 -6 3 C-3.525 3.495 -3.525 3.495 -1 4 C-0.67 2.68 -0.34 1.36 0 0 Z " fill="#949587" transform="translate(298,200)"/>
<path d="M0 0 C0.33 0 0.66 0 1 0 C1.33 2.31 1.66 4.62 2 7 C2.66 6.34 3.32 5.68 4 5 C4.99 5.33 5.98 5.66 7 6 C6.360625 6.391875 5.72125 6.78375 5.0625 7.1875 C2.56221181 9.38472296 2.35049575 10.75791433 2 14 C-0.28062828 10.57905758 -0.21925007 9.31812778 -0.125 5.3125 C-0.10695313 4.31863281 -0.08890625 3.32476562 -0.0703125 2.30078125 C-0.04710937 1.54152344 -0.02390625 0.78226562 0 0 Z " fill="#5F282D" transform="translate(351,64)"/>
<path d="M0 0 C-1.65 1.65 -3.3 3.3 -5 5 C-5.99 4.67 -6.98 4.34 -8 4 C-7.67 2.68 -7.34 1.36 -7 0 C-3.98968256 -0.93423645 -3.13349732 -1.04449911 0 0 Z " fill="#BEBFAA" transform="translate(110,479)"/>
<path d="M0 0 C0.66 0.33 1.32 0.66 2 1 C2 4.63 2 8.26 2 12 C1.01 12 0.02 12 -1 12 C-0.67 8.04 -0.34 4.08 0 0 Z " fill="#B8BBAA" transform="translate(132,479)"/>
<path d="M0 0 C1.32 0.33 2.64 0.66 4 1 C6.20927172 6.97802937 5.93213141 11.73960391 5 18 C4.67 18 4.34 18 4 18 C4 13.38 4 8.76 4 4 C3.34 4 2.68 4 2 4 C2 3.01 2 2.02 2 1 C1.34 0.67 0.68 0.34 0 0 Z " fill="#8D8778" transform="translate(135,435)"/>
<path d="M0 0 C0.66 0.99 1.32 1.98 2 3 C1.67 3.61875 1.34 4.2375 1 4.875 C-0.14193235 6.91018344 -0.14193235 6.91018344 0 9 C-1.65 9.33 -3.3 9.66 -5 10 C-3.66511872 6.40608886 -2.03977277 3.24509304 0 0 Z " fill="#4F3427" transform="translate(138,426)"/>
<path d="M0 0 C0.680625 0.28875 1.36125 0.5775 2.0625 0.875 C2.3925 1.865 2.7225 2.855 3.0625 3.875 C2.4025 3.875 1.7425 3.875 1.0625 3.875 C1.0625 3.215 1.0625 2.555 1.0625 1.875 C-3.76192184 3.14446514 -3.76192184 3.14446514 -6.9375 6.875 C-7.9275 6.545 -8.9175 6.215 -9.9375 5.875 C-3.86310175 -0.16438731 -3.86310175 -0.16438731 0 0 Z " fill="#5A2A2E" transform="translate(407.9375,17.125)"/>
<path d="M0 0 C0.66 0.33 1.32 0.66 2 1 C1.67 3.31 1.34 5.62 1 8 C0.34 8 -0.32 8 -1 8 C-1.33 8.99 -1.66 9.98 -2 11 C-2.05399736 9.54207116 -2.09279177 8.08357288 -2.125 6.625 C-2.15980469 5.40683594 -2.15980469 5.40683594 -2.1953125 4.1640625 C-2 2 -2 2 0 0 Z " fill="#BDC1AE" transform="translate(125,468)"/>
<path d="M0 0 C-0.33 0.66 -0.66 1.32 -1 2 C-1 2.99 -1 3.98 -1 5 C-2.66666667 5 -4.33333333 5 -6 5 C-6 4.34 -6 3.68 -6 3 C-6.66 2.67 -7.32 2.34 -8 2 C-4.77208445 -0.1519437 -3.71599191 -0.20086443 0 0 Z " fill="#A0A290" transform="translate(103,462)"/>
<path d="M0 0 C0 2.64 0 5.28 0 8 C-0.33 6.68 -0.66 5.36 -1 4 C-1.61875 4.495 -2.2375 4.99 -2.875 5.5 C-5 7 -5 7 -7 7 C-7 5.02 -7 3.04 -7 1 C-6.01 2.485 -6.01 2.485 -5 4 C-4.0409375 3.01 -4.0409375 3.01 -3.0625 2 C-1 0 -1 0 0 0 Z " fill="#717060" transform="translate(139,455)"/>
<path d="M0 0 C0.66 0.33 1.32 0.66 2 1 C2.625 3.0625 2.625 3.0625 3 5 C4.32 5.33 5.64 5.66 7 6 C4.69 6.33 2.38 6.66 0 7 C-1.125 2.25 -1.125 2.25 0 0 Z " fill="#795B4D" transform="translate(170,386)"/>
<path d="M0 0 C0.33 0 0.66 0 1 0 C1 2.97 1 5.94 1 9 C-0.32 8.01 -1.64 7.02 -3 6 C-2.42655063 3.13275314 -2.1385485 2.1385485 0 0 Z " fill="#BABAAA" transform="translate(109,482)"/>
<path d="M0 0 C2 2 2 2 2.1953125 4.1640625 C2.16050781 5.38222656 2.16050781 5.38222656 2.125 6.625 C2.10695313 7.44226563 2.08890625 8.25953125 2.0703125 9.1015625 C2.04710938 9.72804688 2.02390625 10.35453125 2 11 C1.01 11 0.02 11 -1 11 C-1.02688151 9.35425434 -1.04634123 7.70838587 -1.0625 6.0625 C-1.07410156 5.14597656 -1.08570312 4.22945313 -1.09765625 3.28515625 C-1 1 -1 1 0 0 Z " fill="#514234" transform="translate(121,463)"/>
<path d="M0 0 C0.66 0.33 1.32 0.66 2 1 C1.67 1.66 1.34 2.32 1 3 C0.01 3 -0.98 3 -2 3 C-2.33 3.99 -2.66 4.98 -3 6 C-5.31 6.33 -7.62 6.66 -10 7 C-6.81404865 4.36021174 -3.69029454 1.89501612 0 0 Z " fill="#72323A" transform="translate(380,35)"/>
<path d="M0 0 C-1.04874998 2.62187494 -1.64931313 3.79371361 -4.125 5.25 C-4.74375 5.4975 -5.3625 5.745 -6 6 C-6 6.66 -6 7.32 -6 8 C-6.66 7.67 -7.32 7.34 -8 7 C-3.53191489 0 -3.53191489 0 0 0 Z " fill="#5D3529" transform="translate(344,114)"/>
<path d="M0 0 C2.51083114 1.25541557 2.87125446 2.50063488 4 5 C2.35 5.66 0.7 6.32 -1 7 C-1 5.68 -1 4.36 -1 3 C-1.66 2.67 -2.32 2.34 -3 2 C-2.01 1.34 -1.02 0.68 0 0 Z " fill="#767966" transform="translate(89,467)"/>
<path d="M0 0 C1 2 1 2 0.1875 4.5625 C-1 7 -1 7 -3 8 C-3.33 8.99 -3.66 9.98 -4 11 C-4.66 11 -5.32 11 -6 11 C-4.54955729 6.89041233 -2.48889248 3.56741255 0 0 Z " fill="#4A2C22" transform="translate(272,217)"/>
<path d="M0 0 C0.66 0.33 1.32 0.66 2 1 C0.68775452 4.93673644 -0.91910327 7.22719294 -4 10 C-4.33 9.34 -4.66 8.68 -5 8 C-4.34 8 -3.68 8 -3 8 C-2.87625 7.4225 -2.7525 6.845 -2.625 6.25 C-1.99351176 3.97664233 -1.11141809 2.0746471 0 0 Z " fill="#513225" transform="translate(284,213)"/>
<path d="M0 0 C3.28788824 3.11016455 5.83735988 6.01618925 8 10 C6 10 6 10 3.4375 7.8125 C0.98865517 4.98690982 0.31237863 3.64441732 0 0 Z M0 6 C2 7 2 7 2 7 Z " fill="#7F8070" transform="translate(107,191)"/>
<path d="M0 0 C2.64836661 3.12988781 4.0048268 6.0193072 5 10 C4.546875 12.1875 4.546875 12.1875 4 14 C3.89042969 13.36191406 3.78085938 12.72382813 3.66796875 12.06640625 C3.50941406 11.24011719 3.35085937 10.41382813 3.1875 9.5625 C2.96126953 8.32693359 2.96126953 8.32693359 2.73046875 7.06640625 C2.48941406 6.38449219 2.24835938 5.70257813 2 5 C1.01 4.67 0.02 4.34 -1 4 C-0.67 2.68 -0.34 1.36 0 0 Z " fill="#757769" transform="translate(202,119)"/>
<path d="M0 0 C0.66 0.33 1.32 0.66 2 1 C-3.14285714 5.42857143 -3.14285714 5.42857143 -7 6 C-7.33 5.34 -7.66 4.68 -8 4 C-6.71349294 3.30289269 -5.42059335 2.61757124 -4.125 1.9375 C-3.40570313 1.55464844 -2.68640625 1.17179687 -1.9453125 0.77734375 C-1.30335937 0.52082031 -0.66140625 0.26429688 0 0 Z " fill="#1F1C11" transform="translate(124,447)"/>
<path d="M0 0 C0 0.99 0 1.98 0 3 C-2.31 3.66 -4.62 4.32 -7 5 C-6.67 3.68 -6.34 2.36 -6 1 C-3.92446352 0.4465236 -2.15634036 0 0 0 Z " fill="#BEC1AC" transform="translate(122,443)"/>
<path d="M0 0 C2.9375 1.3125 2.9375 1.3125 3.8125 3.4375 C3.874375 4.365625 3.874375 4.365625 3.9375 5.3125 C0.16204612 4.22181332 -2.53293472 3.4041909 -5.0625 0.3125 C-3.0625 -0.6875 -3.0625 -0.6875 0 0 Z " fill="#9A9C8A" transform="translate(144.0625,386.6875)"/>
<path d="M0 0 C0.66 0.33 1.32 0.66 2 1 C0.75023244 4.65316671 0.32901247 5.78065836 -3 8 C-3.33 6.35 -3.66 4.7 -4 3 C-3.34 3 -2.68 3 -2 3 C-1.34 2.01 -0.68 1.02 0 0 Z " fill="#513027" transform="translate(331,128)"/>
<path d="M0 0 C0.33 0 0.66 0 1 0 C1 3.63 1 7.26 1 11 C0.01 11.33 -0.98 11.66 -2 12 C-2 10.02 -2 8.04 -2 6 C-1.67 6 -1.34 6 -1 6 C-0.67 4.02 -0.34 2.04 0 0 Z " fill="#313227" transform="translate(112,487)"/>
<path d="M0 0 C1 4 1 4 0.00390625 5.921875 C-0.47175781 6.52515625 -0.94742188 7.1284375 -1.4375 7.75 C-1.91058594 8.36359375 -2.38367188 8.9771875 -2.87109375 9.609375 C-3.24363281 10.06828125 -3.61617187 10.5271875 -4 11 C-4.66 10.67 -5.32 10.34 -6 10 C-4.02 6.7 -2.04 3.4 0 0 Z " fill="#C3B59D" transform="translate(203,340)"/>
<path d="M0 0 C0.33 0.99 0.66 1.98 1 3 C-2.3 3.66 -5.6 4.32 -9 5 C-4 0 -4 0 0 0 Z " fill="#8E8E7E" transform="translate(170,241)"/>
<path d="M0 0 C0.66 1.32 1.32 2.64 2 4 C0.68 5.32 -0.64 6.64 -2 8 C-2 5.69 -2 3.38 -2 1 C-1.34 0.67 -0.68 0.34 0 0 Z " fill="#5A3328" transform="translate(366,90)"/>
<path d="M0 0 C0 1.65 0 3.3 0 5 C-2.475 4.01 -2.475 4.01 -5 3 C-5.33 3.66 -5.66 4.32 -6 5 C-6.66 4.34 -7.32 3.68 -8 3 C-2.25 0 -2.25 0 0 0 Z " fill="#777B6A" transform="translate(103,479)"/>
<path d="M0 0 C-0.99 0.33 -1.98 0.66 -3 1 C-3 1.66 -3 2.32 -3 3 C-4.32 3.33 -5.64 3.66 -7 4 C-7.33 3.01 -7.66 2.02 -8 1 C-4.93251126 -0.86240388 -3.40254489 -1.2151946 0 0 Z " fill="#9D9F8F" transform="translate(119,454)"/>
<path d="M0 0 C0.66 0.99 1.32 1.98 2 3 C1.01 3.495 1.01 3.495 0 4 C0 4.99 0 5.98 0 7 C-2.5 8.6875 -2.5 8.6875 -5 10 C-3.66511872 6.40608886 -2.03977277 3.24509304 0 0 Z " fill="#C1B69E" transform="translate(180,377)"/>
<path d="M0 0 C0 0.99 0 1.98 0 3 C-3.33333333 6 -3.33333333 6 -6 6 C-4.95125002 3.37812506 -4.35068687 2.20628639 -1.875 0.75 C-1.25625 0.5025 -0.6375 0.255 0 0 Z " fill="#7B373F" transform="translate(362,49)"/>
<path d="M0 0 C0.66 0.33 1.32 0.66 2 1 C1.67 1.99 1.34 2.98 1 4 C0.34 4 -0.32 4 -1 4 C-2.62514468 5.45833358 -2.62514468 5.45833358 -4 7 C-4.33 6.01 -4.66 5.02 -5 4 C-3.35 2.68 -1.7 1.36 0 0 Z " fill="#8A8875" transform="translate(109,480)"/>
<path d="M0 0 C-0.33 0.66 -0.66 1.32 -1 2 C-3.32156597 2.40729228 -5.6568787 2.74438677 -8 3 C-8 2.01 -8 1.02 -8 0 C-5.13822943 -1.43088528 -3.06624227 -0.59991697 0 0 Z " fill="#5E3F2D" transform="translate(122,461)"/>
<path d="M0 0 C2.33944736 0.28730055 4.6739143 0.61936779 7 1 C5.35 2.32 3.7 3.64 2 5 C1.67 4.01 1.34 3.02 1 2 C0.34 1.67 -0.32 1.34 -1 1 C-0.67 0.67 -0.34 0.34 0 0 Z " fill="#A7AB95" transform="translate(109,459)"/>
<path d="M0 0 C2.475 0.99 2.475 0.99 5 2 C5 3.98 5 5.96 5 8 C4.67 8 4.34 8 4 8 C4 6.35 4 4.7 4 3 C2.35 3.33 0.7 3.66 -1 4 C-0.67 2.68 -0.34 1.36 0 0 Z " fill="#B8AA91" transform="translate(129,441)"/>
<path d="M0 0 C1.0326802 2.78823655 1.04509293 3.8677274 0.0625 6.75 C-0.288125 7.4925 -0.63875 8.235 -1 9 C-1.99 9 -2.98 9 -4 9 C-3.71125 8.443125 -3.4225 7.88625 -3.125 7.3125 C-1.9586747 4.91505355 -0.9660119 2.48403061 0 0 Z " fill="#734A39" transform="translate(162,389)"/>
<path d="M0 0 C1.65 0 3.3 0 5 0 C5.66 1.65 6.32 3.3 7 5 C3.34683329 3.75023244 2.21934164 3.32901247 0 0 Z " fill="#9C9F8F" transform="translate(39,268)"/>
<path d="M0 0 C0.33 1.32 0.66 2.64 1 4 C-1.64738916 5.4606285 -2.89448334 6 -6 6 C-4.02 4.02 -2.04 2.04 0 0 Z " fill="#8D8F80" transform="translate(148,255)"/>
<path d="M0 0 C3.00617269 3.00617269 2.59585316 5.82381598 3 10 C1.5 8.9375 1.5 8.9375 0 7 C-0.1875 3.3125 -0.1875 3.3125 0 0 Z " fill="#949587" transform="translate(421,198)"/>
<path d="M0 0 C1.1875 1.625 1.1875 1.625 2 4 C0.625 7.25 0.625 7.25 -1 10 C-1.33 10 -1.66 10 -2 10 C-2.22036864 6.14354879 -1.60355101 3.50776784 0 0 Z " fill="#7E3A41" transform="translate(401,76)"/>
<path d="M0 0 C0.99 0 1.98 0 3 0 C2 2 1 4 0 6 C-0.66 6 -1.32 6 -2 6 C-1.125 1.125 -1.125 1.125 0 0 Z " fill="#A0434D" transform="translate(355,62)"/>
<path d="M0 0 C0.99 0 1.98 0 3 0 C2.67 1.65 2.34 3.3 2 5 C1.01 5 0.02 5 -1 5 C-0.67 3.35 -0.34 1.7 0 0 Z " fill="#ACAF9B" transform="translate(71,495)"/>
<path d="M0 0 C1.32 0.66 2.64 1.32 4 2 C3.34 3.32 2.68 4.64 2 6 C1.67 5.34 1.34 4.68 1 4 C0.34 4 -0.32 4 -1 4 C-0.67 2.68 -0.34 1.36 0 0 Z " fill="#C0C4AC" transform="translate(91,485)"/>
<path d="M0 0 C0.66 0 1.32 0 2 0 C2 1.98 2 3.96 2 6 C0.68 5.34 -0.64 4.68 -2 4 C-1.34 2.68 -0.68 1.36 0 0 Z " fill="#4D3E2F" transform="translate(112,477)"/>
<path d="M0 0 C0.99 0.33 1.98 0.66 3 1 C3 1.99 3 2.98 3 4 C1.68 4.33 0.36 4.66 -1 5 C-1 1 -1 1 0 0 Z " fill="#723F2D" transform="translate(139,429)"/>
<path d="M0 0 C0.66 0 1.32 0 2 0 C2 0.66 2 1.32 2 2 C2.99 2 3.98 2 5 2 C5 3.98 5 5.96 5 8 C2.74754119 5.31158141 1.11786042 3.35358125 0 0 Z " fill="#848678" transform="translate(128,372)"/>
<path d="M0 0 C-1.07401108 2.91517292 -1.77810176 4.77810176 -4 7 C-4.33 5.02 -4.66 3.04 -5 1 C-3 0 -3 0 0 0 Z " fill="#C2B79F" transform="translate(174,370)"/>
<path d="M0 0 C1.98 0.99 1.98 0.99 4 2 C4 3.65 4 5.3 4 7 C3.01 7.495 3.01 7.495 2 8 C2 7.01 2 6.02 2 5 C1.34 5 0.68 5 0 5 C0 3.35 0 1.7 0 0 Z " fill="#924343" transform="translate(370,82)"/>
<path d="M0 0 C1.32 0.66 2.64 1.32 4 2 C0.25 5 0.25 5 -2 5 C-1.125 1.125 -1.125 1.125 0 0 Z " fill="#873D45" transform="translate(354,59)"/>
<path d="" fill="#000000" transform="translate(0,0)"/>
<path d="" fill="#000000" transform="translate(0,0)"/>
<path d="" fill="#000000" transform="translate(0,0)"/>
<path d="" fill="#000000" transform="translate(0,0)"/>
<path d="" fill="#000000" transform="translate(0,0)"/>
<path d="" fill="#000000" transform="translate(0,0)"/>
<path d="" fill="#000000" transform="translate(0,0)"/>
<path d="" fill="#000000" transform="translate(0,0)"/>
<path d="" fill="#000000" transform="translate(0,0)"/>
<path d="" fill="#000000" transform="translate(0,0)"/>
<path d="" fill="#000000" transform="translate(0,0)"/>
<path d="" fill="#000000" transform="translate(0,0)"/>
<path d="" fill="#000000" transform="translate(0,0)"/>
<path d="" fill="#000000" transform="translate(0,0)"/>
<path d="" fill="#000000" transform="translate(0,0)"/>
<path d="" fill="#000000" transform="translate(0,0)"/>
<path d="" fill="#000000" transform="translate(0,0)"/>
<path d="" fill="#000000" transform="translate(0,0)"/>
<path d="" fill="#000000" transform="translate(0,0)"/>
<path d="" fill="#000000" transform="translate(0,0)"/>
<path d="" fill="#000000" transform="translate(0,0)"/>
<path d="" fill="#000000" transform="translate(0,0)"/>
<path d="" fill="#000000" transform="translate(0,0)"/>
<path d="" fill="#000000" transform="translate(0,0)"/>
<path d="" fill="#000000" transform="translate(0,0)"/>
<path d="" fill="#000000" transform="translate(0,0)"/>
<path d="" fill="#000000" transform="translate(0,0)"/>
<path d="" fill="#000000" transform="translate(0,0)"/>
<path d="" fill="#000000" transform="translate(0,0)"/>
<path d="" fill="#000000" transform="translate(0,0)"/>
<path d="" fill="#000000" transform="translate(0,0)"/>
<path d="" fill="#000000" transform="translate(0,0)"/>
<path d="" fill="#000000" transform="translate(0,0)"/>
<path d="" fill="#000000" transform="translate(0,0)"/>
<path d="" fill="#000000" transform="translate(0,0)"/>
<path d="" fill="#000000" transform="translate(0,0)"/>
<path d="" fill="#000000" transform="translate(0,0)"/>
<path d="" fill="#000000" transform="translate(0,0)"/>
<path d="" fill="#000000" transform="translate(0,0)"/>
<path d="" fill="#000000" transform="translate(0,0)"/>
<path d="" fill="#000000" transform="translate(0,0)"/>
<path d="" fill="#000000" transform="translate(0,0)"/>
<path d="" fill="#000000" transform="translate(0,0)"/>
<path d="" fill="#000000" transform="translate(0,0)"/>
<path d="" fill="#000000" transform="translate(0,0)"/>
<path d="" fill="#000000" transform="translate(0,0)"/>
<path d="" fill="#000000" transform="translate(0,0)"/>
<path d="" fill="#000000" transform="translate(0,0)"/>
<path d="" fill="#000000" transform="translate(0,0)"/>
<path d="" fill="#000000" transform="translate(0,0)"/>
<path d="" fill="#000000" transform="translate(0,0)"/>
<path d="" fill="#000000" transform="translate(0,0)"/>
<path d="" fill="#000000" transform="translate(0,0)"/>
<path d="" fill="#000000" transform="translate(0,0)"/>
<path d="" fill="#000000" transform="translate(0,0)"/>
<path d="" fill="#000000" transform="translate(0,0)"/>
<path d="" fill="#000000" transform="translate(0,0)"/>
<path d="" fill="#000000" transform="translate(0,0)"/>
<path d="" fill="#000000" transform="translate(0,0)"/>
<path d="" fill="#000000" transform="translate(0,0)"/>
</svg>
